<svg width="16" height="16" viewBox="0 0 16 16" fill="none" xmlns="http://www.w3.org/2000/svg">
<g clip-path="url(#clip0_5527_80164)">
<path d="M3.8002 6.6906C4.10566 6.48097 4.39999 6.2779 4.69548 6.07663C5.02147 5.85506 5.39436 5.91358 5.59839 6.21579C5.80419 6.52158 5.71917 6.90501 5.39025 7.13256C4.7289 7.58885 4.06638 8.04395 3.40268 8.49667C3.05266 8.73556 2.68798 8.65912 2.45404 8.30017C2.00963 7.61812 1.56755 6.93428 1.12548 6.25043C0.913238 5.92135 0.975973 5.53075 1.2703 5.33008C1.57576 5.12164 1.94572 5.21302 2.16793 5.55166C2.3063 5.76189 2.44291 5.97331 2.58069 6.18354C2.58538 6.19071 2.59652 6.19429 2.60824 6.20265C2.69033 5.95479 2.75834 5.70216 2.85566 5.46207C3.79903 3.13043 5.47175 1.65762 7.89846 1.14817C9.9816 0.711589 11.8648 1.24433 13.5047 2.60366C14.7946 3.67273 15.5943 5.06371 15.8804 6.73778C16.2298 8.78275 15.8165 10.6563 14.5706 12.3101C13.5493 13.6652 12.1996 14.5235 10.5538 14.8537C8.47363 15.2712 6.59276 14.7839 4.9259 13.4544C4.4164 13.0483 3.9843 12.5621 3.61727 12.018C3.41148 11.7128 3.47421 11.3294 3.76092 11.1222C4.04351 10.9173 4.42403 10.9854 4.63685 11.29C5.44947 12.4522 6.53062 13.2161 7.88908 13.5655C10.7813 14.3084 13.8113 12.4665 14.5612 9.51377C15.3322 6.47738 13.6108 3.43502 10.6435 2.59052C7.68857 1.7484 4.53601 3.6136 3.79727 6.63983C3.79492 6.64879 3.79785 6.65895 3.8002 6.6906Z" fill="#463839"/>
<path d="M8.50254 6.37742C8.50254 5.86559 8.50196 5.35375 8.50254 4.84191C8.50313 4.44415 8.75876 4.15926 9.11816 4.15627C9.48695 4.15329 9.75254 4.43399 9.75372 4.84012C9.75665 5.75928 9.75606 6.67844 9.75254 7.59819C9.75196 7.70032 9.77893 7.77259 9.85046 7.84605C10.3781 8.38357 10.9011 8.92587 11.4264 9.46637C11.6064 9.65152 11.6727 9.8713 11.5959 10.121C11.5214 10.364 11.3491 10.5092 11.1034 10.5546C10.8911 10.594 10.7041 10.5265 10.5552 10.3742C9.92844 9.73394 9.30519 9.08951 8.68195 8.44568C8.55648 8.31608 8.50137 8.15602 8.50196 7.97326C8.50372 7.44052 8.50254 6.90897 8.50254 6.37742Z" fill="#463839"/>
</g>
<defs>
<clipPath id="clip0_5527_80164">
<rect width="15" height="14" fill="white" transform="translate(1 1)"/>
</clipPath>
</defs>
</svg>
