<svg width="16" height="16" viewBox="0 0 16 16" fill="none" xmlns="http://www.w3.org/2000/svg">
<path d="M5.93464 7.55536C5.3349 7.87287 4.70887 8.00748 4.05655 8.01774C3.16508 8.03162 2.3262 7.85838 1.63756 7.26502C1.19871 6.88654 0.908862 6.40546 0.685995 5.88574C0.332288 5.05756 0.157625 4.18955 0.0931441 3.30041C0.0468178 2.66963 0.0242806 2.03763 0.000491457 1.40564C-0.00952504 1.13944 0.133836 1 0.40616 1C1.48982 1.00121 2.57035 1.04588 3.63711 1.25111C4.37457 1.39296 5.08386 1.60845 5.73619 1.98089C6.5782 2.46198 7.06776 3.16822 7.21925 4.0972C7.367 4.99961 7.26433 5.86582 6.81859 6.68131C6.75098 6.80445 6.65458 6.9131 6.58321 7.03504C6.55817 7.07729 6.54502 7.14972 6.56505 7.19017C7.13662 8.33766 7.47342 9.55275 7.68753 10.8029C7.69504 10.8463 7.71006 10.8886 7.7157 10.9085C7.901 10.4292 8.06314 9.92579 8.28914 9.44953C8.51326 8.9775 8.79811 8.53142 9.06354 8.0787C9.10674 8.00506 9.11049 7.95617 9.07732 7.87709C8.59402 6.73624 8.55521 5.596 9.12802 4.47265C9.42789 3.88472 9.95125 3.51168 10.5385 3.21892C11.2853 2.84649 12.0917 2.66117 12.9186 2.54467C13.7807 2.42335 14.649 2.39015 15.5185 2.3829C15.8679 2.37989 16.0025 2.50302 16 2.84045C15.9918 3.9813 15.9324 5.11732 15.6569 6.23282C15.4898 6.90948 15.2412 7.55295 14.8287 8.13303C14.3748 8.77046 13.7519 9.15315 12.975 9.30708C11.9865 9.50326 11.0312 9.41634 10.124 8.96905C10.027 8.92136 9.93498 8.86341 9.84546 8.80366C9.75656 8.7439 9.67455 8.67508 9.5531 8.58213C9.31145 9.05899 9.05415 9.5111 8.84881 9.98374C8.38931 11.0413 8.15079 12.1526 8.06001 13.2934C8.02621 13.7232 8.01557 14.1554 7.99616 14.5864C7.98364 14.8622 7.8359 15.0162 7.5955 14.9987C7.43649 14.9872 7.31003 14.884 7.28186 14.7325C7.26621 14.6492 7.25932 14.5628 7.25932 14.4783C7.25995 13.4679 7.1986 12.4616 7.05962 11.4602C6.88182 10.1841 6.57319 8.94128 6.03543 7.75757C6.00601 7.69419 5.97345 7.63262 5.93464 7.55536ZM9.99883 8.03886C10.166 8.15114 10.3144 8.2779 10.4859 8.3612C11.1889 8.70285 11.9339 8.76019 12.7033 8.63947C13.432 8.52538 13.9798 8.16683 14.356 7.55295C14.6283 7.10868 14.8111 6.63242 14.9376 6.13443C15.1304 5.37688 15.2093 4.60424 15.2481 3.82738C15.26 3.58472 15.25 3.34025 15.25 3.09277C15.2137 3.09095 15.178 3.08794 15.1423 3.08854C14.3454 3.09337 13.5522 3.15011 12.7659 3.27566C12.1129 3.38009 11.475 3.53703 10.8834 3.83402C10.3807 4.08633 9.93936 4.40323 9.70522 4.92658C9.45043 5.49519 9.40223 6.08916 9.48423 6.6952C9.51303 6.90767 9.5725 7.11592 9.6276 7.36944C9.68394 7.30244 9.70585 7.27467 9.72964 7.24872C10.2374 6.68312 10.8246 6.20385 11.4806 5.80726C11.7968 5.61592 12.1286 5.4469 12.461 5.28392C12.7371 5.14811 12.9919 5.26098 13.0438 5.52115C13.0758 5.68111 13.0025 5.80183 12.8047 5.89539C12.2619 6.15193 11.7436 6.4465 11.2684 6.80868C10.8045 7.16119 10.3863 7.55657 9.99883 8.03886ZM5.59032 6.93604C5.33615 6.4954 5.02815 6.09942 4.68383 5.7294C4.26001 5.27366 3.75417 4.91269 3.23519 4.56621C3.1463 4.50706 3.05865 4.43945 2.98916 4.36038C2.86897 4.22335 2.88462 4.03382 3.0092 3.90826C3.12439 3.79237 3.32033 3.77184 3.46557 3.8654C3.57388 3.93482 3.67529 4.0139 3.7836 4.08331C4.70136 4.67366 5.4695 5.40465 6.05609 6.30888C6.07925 6.34449 6.10805 6.37588 6.14311 6.41994C6.17441 6.36501 6.19882 6.32638 6.21823 6.28654C6.57695 5.54469 6.63079 4.77507 6.44673 3.9819C6.304 3.36802 5.94966 2.89779 5.38185 2.60262C5.0006 2.40403 4.59932 2.22475 4.18551 2.10463C3.0862 1.78532 1.94807 1.71831 0.806193 1.70443C0.781778 1.70443 0.757363 1.71228 0.729818 1.71711C0.728566 1.7491 0.724183 1.77385 0.726687 1.79799C0.785534 2.52294 0.824974 3.24971 0.909488 3.97164C0.988994 4.65132 1.17493 5.30867 1.49984 5.92316C1.81097 6.51049 2.23417 6.97769 2.92093 7.17146C3.47559 7.32779 4.03651 7.35315 4.6037 7.26321C4.94739 7.20707 5.28044 7.11532 5.59032 6.93604Z" fill="#463839"/>
</svg>
