<svg width="16" height="16" viewBox="0 0 16 16" fill="none" xmlns="http://www.w3.org/2000/svg">
<mask id="path-1-outside-1_5531_28073" maskUnits="userSpaceOnUse" x="-1" y="-0.999023" width="18" height="18" fill="black">
<rect fill="white" x="-1" y="-0.999023" width="18" height="18"/>
<path d="M11.9653 13.4005C11.9653 14.0676 11.9653 14.7123 11.9653 15.375C12.0322 15.375 12.0936 15.375 12.1543 15.375C13.2952 15.375 14.4354 15.375 15.5763 15.375C15.6233 15.375 15.6702 15.3719 15.7171 15.3769C15.8748 15.3938 15.9963 15.5258 15.9994 15.6804C16.0031 15.8406 15.8792 15.9802 15.7153 15.9977C15.6689 16.0027 15.6214 15.9996 15.5744 15.9996C10.5277 15.9996 5.48041 15.9996 0.433709 15.9996C0.147704 15.9996 0.00188542 15.8951 7.92281e-06 15.6892C-0.00124374 15.4827 0.145827 15.375 0.429328 15.375C1.502 15.375 2.5753 15.375 3.64798 15.375C3.70493 15.375 3.76188 15.375 3.83135 15.375C3.83135 14.711 3.83135 14.0526 3.83135 13.4105C3.48839 13.3273 3.13855 13.2716 2.80874 13.1577C1.62279 12.7459 0.789807 11.9498 0.304788 10.7914C0.215294 10.578 0.270993 10.404 0.442471 10.3296C0.62271 10.2513 0.784174 10.3346 0.881804 10.5567C1.39311 11.7208 2.27052 12.4367 3.51468 12.7002C3.61606 12.7215 3.71932 12.7328 3.84449 12.7522C3.84449 12.6927 3.84449 12.6433 3.84449 12.5938C3.84449 11.8441 3.84699 11.0937 3.84011 10.344C3.83948 10.267 3.80068 10.1725 3.74748 10.1168C3.44834 9.80449 3.13855 9.50284 2.8344 9.19618C2.67606 9.03659 2.66292 8.84696 2.7981 8.71491C2.93516 8.58036 3.11352 8.59538 3.27811 8.75935C3.45772 8.93771 3.63421 9.1192 3.84511 9.33261C3.84511 8.97526 3.84199 8.66547 3.84637 8.35631C3.84887 8.18484 3.97091 8.05341 4.12924 8.03526C4.26442 8.01962 4.41212 8.11474 4.4528 8.25368C4.46844 8.30687 4.46844 8.36633 4.46844 8.42328C4.46969 9.10043 4.46907 9.77758 4.46907 10.4547C4.46907 10.5117 4.46907 10.5693 4.46907 10.6569C4.51851 10.6149 4.55293 10.5899 4.58234 10.5605C4.86647 10.2776 5.14809 9.99224 5.4341 9.71124C5.56678 9.58044 5.70634 9.56542 5.84402 9.65366C5.9648 9.73064 6.02175 9.8896 5.96168 10.0229C5.93289 10.0867 5.88157 10.1437 5.83088 10.195C5.41282 10.6162 4.98913 11.033 4.57546 11.4586C4.51851 11.5174 4.47595 11.6163 4.47345 11.6983C4.46218 12.0456 4.46844 12.3936 4.46844 12.7509C5.12682 12.6877 5.70947 12.4718 6.22703 12.0925C6.9436 11.5681 7.40359 10.8715 7.60636 10.0048C7.62826 9.91276 7.61199 9.86519 7.53439 9.81262C6.23329 8.92457 5.40969 7.71358 5.08363 6.16841C5.0004 5.77476 4.99915 5.7685 4.58923 5.72469C3.57726 5.61642 2.67418 5.88303 1.88689 6.53202C1.42753 6.91064 1.09459 7.38064 0.870539 7.93137C0.800446 8.10285 0.695306 8.17169 0.538223 8.1573C0.390527 8.14353 0.294774 8.05779 0.267864 7.91823C0.254095 7.84751 0.267238 7.76115 0.296026 7.69356C0.873668 6.33363 1.88376 5.48437 3.3263 5.16019C3.86577 5.03878 4.41024 5.05005 4.94658 5.14955C4.97349 4.83414 4.986 4.52185 5.02981 4.21394C5.22883 2.81458 5.86342 1.64365 6.92358 0.711785C7.19581 0.472718 7.50748 0.279336 7.80287 0.0671793C7.93117 -0.0248179 8.06259 -0.0166821 8.19652 0.0653018C9.68349 0.976512 10.6103 2.28137 10.9327 3.99865C11.0096 4.41045 11.0209 4.83414 11.0609 5.23404C11.3451 5.20963 11.6524 5.15894 11.959 5.16145C13.1825 5.16958 14.3322 6.18343 14.4961 7.39754C14.5312 7.65789 14.5087 7.92637 14.5218 8.19047C14.5243 8.23928 14.5606 8.305 14.6013 8.33003C15.3423 8.78814 15.7897 9.44526 15.9568 10.2983C16.2478 11.7834 15.1833 13.3292 13.6926 13.5976C13.1018 13.7022 12.5354 13.6377 11.9653 13.4005ZM11.9578 9.91776C11.9703 9.92214 11.9834 9.9259 11.9959 9.93028C12.2306 9.69434 12.4628 9.4559 12.7019 9.22434C12.7588 9.16927 12.8346 9.11732 12.9097 9.09918C13.0498 9.06601 13.1675 9.12609 13.237 9.25376C13.3152 9.39645 13.2783 9.52537 13.1675 9.63614C12.7958 10.0085 12.4215 10.3777 12.0548 10.7545C12.0034 10.8071 11.9634 10.8959 11.9621 10.9679C11.9546 11.4992 11.9603 12.0299 11.9559 12.5613C11.9553 12.6595 11.9909 12.7108 12.0748 12.754C12.4979 12.9718 12.9397 13.0582 13.4166 13.005C14.4717 12.8867 15.3541 11.9517 15.3704 10.8865C15.3854 9.92402 14.9567 9.2112 14.0937 8.77124C13.8553 8.6492 13.8328 8.56597 13.8615 8.29686C13.891 8.02087 13.9179 7.73111 13.8678 7.462C13.7226 6.67658 13.2482 6.13837 12.4947 5.88678C11.74 5.63457 11.0397 5.78665 10.4483 6.32174C9.76735 6.93818 9.58711 7.86378 9.95761 8.70428C10.0227 8.8526 10.0559 9.00092 9.92194 9.1192C9.85184 9.18116 9.75171 9.21558 9.65971 9.24437C8.5983 9.57856 8.03318 10.7601 8.4431 11.7921C8.86115 12.8448 10.0847 13.3192 11.0966 12.8304C11.2737 12.7446 11.3707 12.6445 11.3351 12.4405C11.3225 12.3698 11.3263 12.294 11.3344 12.2221C11.3482 12.0975 11.3031 12.0087 11.213 11.921C10.8657 11.5837 10.5246 11.2395 10.1854 10.8941C10.0552 10.7614 10.0552 10.5836 10.1716 10.4597C10.2905 10.3333 10.4821 10.3277 10.6197 10.4497C10.6817 10.5048 10.7386 10.5667 10.7968 10.6256C10.9627 10.7939 11.1279 10.9623 11.2938 11.1306C11.3069 11.1244 11.3194 11.1175 11.3326 11.1112C11.3326 11.0555 11.3326 11.0005 11.3326 10.9448C11.3326 10.4084 11.3338 9.87208 11.3319 9.33574C11.3313 9.18742 11.3757 9.06788 11.5172 9.00467C11.73 8.91017 11.9434 9.05599 11.9546 9.31133C11.9646 9.51473 11.9578 9.71624 11.9578 9.91776ZM7.65017 6.07891C7.66268 6.07266 7.67457 6.06577 7.68709 6.05951C7.68709 6.00319 7.68709 5.94624 7.68709 5.88991C7.68709 5.04629 7.68647 4.20267 7.68772 3.35905C7.68772 3.14439 7.80975 3.00358 7.99375 3.00045C8.18463 2.99732 8.31042 3.14001 8.31104 3.36406C8.3123 3.73392 8.31105 4.10379 8.31167 4.47303C8.31167 4.51621 8.31793 4.5594 8.32106 4.60946C8.34359 4.59757 8.35423 4.59444 8.36111 4.58756C8.5013 4.448 8.64148 4.30781 8.78167 4.16888C8.95252 3.9999 9.13526 3.98426 9.27232 4.12507C9.4075 4.26463 9.39248 4.43798 9.22664 4.60446C8.95878 4.87419 8.69155 5.14455 8.41869 5.40927C8.34234 5.48312 8.30792 5.55697 8.30854 5.66586C8.31292 6.76983 8.31104 7.8738 8.31104 8.97776C8.31104 9.0272 8.31104 9.07665 8.31104 9.12609C8.32669 9.1361 8.34234 9.14611 8.35798 9.15613C8.62396 8.89703 8.89182 8.63919 9.15404 8.37634C9.1797 8.35068 9.1822 8.28935 9.17719 8.24679C9.04765 7.17162 9.42064 6.3111 10.2755 5.6521C10.325 5.61392 10.3763 5.53882 10.3763 5.48125C10.3738 5.07696 10.3988 4.66641 10.34 4.26964C10.1184 2.78141 9.36244 1.61861 8.13081 0.758723C8.03443 0.691133 7.96684 0.68863 7.87171 0.757471C6.25144 1.92402 5.46852 3.49361 5.6231 5.49376C5.72511 6.81051 6.30526 7.90884 7.26466 8.80941C7.39045 8.9277 7.53001 9.03158 7.68709 9.16238C7.68709 8.45582 7.68459 7.78994 7.68959 7.12343C7.69022 7.02016 7.65643 6.9507 7.58508 6.8806C7.2246 6.52638 6.86976 6.16716 6.51178 5.81106C6.41853 5.71843 6.35219 5.61642 6.38787 5.47874C6.45108 5.23529 6.73082 5.15706 6.91669 5.33793C7.16577 5.5795 7.40609 5.83171 7.65017 6.07891ZM7.67395 15.3688C7.67395 14.0651 7.67395 12.7747 7.67395 11.4598C6.89291 12.6063 5.83338 13.2403 4.4772 13.383C4.4772 14.0476 4.4772 14.7047 4.4772 15.3688C5.54612 15.3688 6.60566 15.3688 7.67395 15.3688ZM8.32168 12.7897C8.32168 13.659 8.32168 14.512 8.32168 15.3637C9.32865 15.3637 10.3243 15.3637 11.3219 15.3637C11.3219 14.7154 11.3219 14.0789 11.3219 13.4268C10.181 13.8643 9.18658 13.6533 8.32168 12.7897Z"/>
</mask>
<path d="M11.9653 13.4005C11.9653 14.0676 11.9653 14.7123 11.9653 15.375C12.0322 15.375 12.0936 15.375 12.1543 15.375C13.2952 15.375 14.4354 15.375 15.5763 15.375C15.6233 15.375 15.6702 15.3719 15.7171 15.3769C15.8748 15.3938 15.9963 15.5258 15.9994 15.6804C16.0031 15.8406 15.8792 15.9802 15.7153 15.9977C15.6689 16.0027 15.6214 15.9996 15.5744 15.9996C10.5277 15.9996 5.48041 15.9996 0.433709 15.9996C0.147704 15.9996 0.00188542 15.8951 7.92281e-06 15.6892C-0.00124374 15.4827 0.145827 15.375 0.429328 15.375C1.502 15.375 2.5753 15.375 3.64798 15.375C3.70493 15.375 3.76188 15.375 3.83135 15.375C3.83135 14.711 3.83135 14.0526 3.83135 13.4105C3.48839 13.3273 3.13855 13.2716 2.80874 13.1577C1.62279 12.7459 0.789807 11.9498 0.304788 10.7914C0.215294 10.578 0.270993 10.404 0.442471 10.3296C0.62271 10.2513 0.784174 10.3346 0.881804 10.5567C1.39311 11.7208 2.27052 12.4367 3.51468 12.7002C3.61606 12.7215 3.71932 12.7328 3.84449 12.7522C3.84449 12.6927 3.84449 12.6433 3.84449 12.5938C3.84449 11.8441 3.84699 11.0937 3.84011 10.344C3.83948 10.267 3.80068 10.1725 3.74748 10.1168C3.44834 9.80449 3.13855 9.50284 2.8344 9.19618C2.67606 9.03659 2.66292 8.84696 2.7981 8.71491C2.93516 8.58036 3.11352 8.59538 3.27811 8.75935C3.45772 8.93771 3.63421 9.1192 3.84511 9.33261C3.84511 8.97526 3.84199 8.66547 3.84637 8.35631C3.84887 8.18484 3.97091 8.05341 4.12924 8.03526C4.26442 8.01962 4.41212 8.11474 4.4528 8.25368C4.46844 8.30687 4.46844 8.36633 4.46844 8.42328C4.46969 9.10043 4.46907 9.77758 4.46907 10.4547C4.46907 10.5117 4.46907 10.5693 4.46907 10.6569C4.51851 10.6149 4.55293 10.5899 4.58234 10.5605C4.86647 10.2776 5.14809 9.99224 5.4341 9.71124C5.56678 9.58044 5.70634 9.56542 5.84402 9.65366C5.9648 9.73064 6.02175 9.8896 5.96168 10.0229C5.93289 10.0867 5.88157 10.1437 5.83088 10.195C5.41282 10.6162 4.98913 11.033 4.57546 11.4586C4.51851 11.5174 4.47595 11.6163 4.47345 11.6983C4.46218 12.0456 4.46844 12.3936 4.46844 12.7509C5.12682 12.6877 5.70947 12.4718 6.22703 12.0925C6.9436 11.5681 7.40359 10.8715 7.60636 10.0048C7.62826 9.91276 7.61199 9.86519 7.53439 9.81262C6.23329 8.92457 5.40969 7.71358 5.08363 6.16841C5.0004 5.77476 4.99915 5.7685 4.58923 5.72469C3.57726 5.61642 2.67418 5.88303 1.88689 6.53202C1.42753 6.91064 1.09459 7.38064 0.870539 7.93137C0.800446 8.10285 0.695306 8.17169 0.538223 8.1573C0.390527 8.14353 0.294774 8.05779 0.267864 7.91823C0.254095 7.84751 0.267238 7.76115 0.296026 7.69356C0.873668 6.33363 1.88376 5.48437 3.3263 5.16019C3.86577 5.03878 4.41024 5.05005 4.94658 5.14955C4.97349 4.83414 4.986 4.52185 5.02981 4.21394C5.22883 2.81458 5.86342 1.64365 6.92358 0.711785C7.19581 0.472718 7.50748 0.279336 7.80287 0.0671793C7.93117 -0.0248179 8.06259 -0.0166821 8.19652 0.0653018C9.68349 0.976512 10.6103 2.28137 10.9327 3.99865C11.0096 4.41045 11.0209 4.83414 11.0609 5.23404C11.3451 5.20963 11.6524 5.15894 11.959 5.16145C13.1825 5.16958 14.3322 6.18343 14.4961 7.39754C14.5312 7.65789 14.5087 7.92637 14.5218 8.19047C14.5243 8.23928 14.5606 8.305 14.6013 8.33003C15.3423 8.78814 15.7897 9.44526 15.9568 10.2983C16.2478 11.7834 15.1833 13.3292 13.6926 13.5976C13.1018 13.7022 12.5354 13.6377 11.9653 13.4005ZM11.9578 9.91776C11.9703 9.92214 11.9834 9.9259 11.9959 9.93028C12.2306 9.69434 12.4628 9.4559 12.7019 9.22434C12.7588 9.16927 12.8346 9.11732 12.9097 9.09918C13.0498 9.06601 13.1675 9.12609 13.237 9.25376C13.3152 9.39645 13.2783 9.52537 13.1675 9.63614C12.7958 10.0085 12.4215 10.3777 12.0548 10.7545C12.0034 10.8071 11.9634 10.8959 11.9621 10.9679C11.9546 11.4992 11.9603 12.0299 11.9559 12.5613C11.9553 12.6595 11.9909 12.7108 12.0748 12.754C12.4979 12.9718 12.9397 13.0582 13.4166 13.005C14.4717 12.8867 15.3541 11.9517 15.3704 10.8865C15.3854 9.92402 14.9567 9.2112 14.0937 8.77124C13.8553 8.6492 13.8328 8.56597 13.8615 8.29686C13.891 8.02087 13.9179 7.73111 13.8678 7.462C13.7226 6.67658 13.2482 6.13837 12.4947 5.88678C11.74 5.63457 11.0397 5.78665 10.4483 6.32174C9.76735 6.93818 9.58711 7.86378 9.95761 8.70428C10.0227 8.8526 10.0559 9.00092 9.92194 9.1192C9.85184 9.18116 9.75171 9.21558 9.65971 9.24437C8.5983 9.57856 8.03318 10.7601 8.4431 11.7921C8.86115 12.8448 10.0847 13.3192 11.0966 12.8304C11.2737 12.7446 11.3707 12.6445 11.3351 12.4405C11.3225 12.3698 11.3263 12.294 11.3344 12.2221C11.3482 12.0975 11.3031 12.0087 11.213 11.921C10.8657 11.5837 10.5246 11.2395 10.1854 10.8941C10.0552 10.7614 10.0552 10.5836 10.1716 10.4597C10.2905 10.3333 10.4821 10.3277 10.6197 10.4497C10.6817 10.5048 10.7386 10.5667 10.7968 10.6256C10.9627 10.7939 11.1279 10.9623 11.2938 11.1306C11.3069 11.1244 11.3194 11.1175 11.3326 11.1112C11.3326 11.0555 11.3326 11.0005 11.3326 10.9448C11.3326 10.4084 11.3338 9.87208 11.3319 9.33574C11.3313 9.18742 11.3757 9.06788 11.5172 9.00467C11.73 8.91017 11.9434 9.05599 11.9546 9.31133C11.9646 9.51473 11.9578 9.71624 11.9578 9.91776ZM7.65017 6.07891C7.66268 6.07266 7.67457 6.06577 7.68709 6.05951C7.68709 6.00319 7.68709 5.94624 7.68709 5.88991C7.68709 5.04629 7.68647 4.20267 7.68772 3.35905C7.68772 3.14439 7.80975 3.00358 7.99375 3.00045C8.18463 2.99732 8.31042 3.14001 8.31104 3.36406C8.3123 3.73392 8.31105 4.10379 8.31167 4.47303C8.31167 4.51621 8.31793 4.5594 8.32106 4.60946C8.34359 4.59757 8.35423 4.59444 8.36111 4.58756C8.5013 4.448 8.64148 4.30781 8.78167 4.16888C8.95252 3.9999 9.13526 3.98426 9.27232 4.12507C9.4075 4.26463 9.39248 4.43798 9.22664 4.60446C8.95878 4.87419 8.69155 5.14455 8.41869 5.40927C8.34234 5.48312 8.30792 5.55697 8.30854 5.66586C8.31292 6.76983 8.31104 7.8738 8.31104 8.97776C8.31104 9.0272 8.31104 9.07665 8.31104 9.12609C8.32669 9.1361 8.34234 9.14611 8.35798 9.15613C8.62396 8.89703 8.89182 8.63919 9.15404 8.37634C9.1797 8.35068 9.1822 8.28935 9.17719 8.24679C9.04765 7.17162 9.42064 6.3111 10.2755 5.6521C10.325 5.61392 10.3763 5.53882 10.3763 5.48125C10.3738 5.07696 10.3988 4.66641 10.34 4.26964C10.1184 2.78141 9.36244 1.61861 8.13081 0.758723C8.03443 0.691133 7.96684 0.68863 7.87171 0.757471C6.25144 1.92402 5.46852 3.49361 5.6231 5.49376C5.72511 6.81051 6.30526 7.90884 7.26466 8.80941C7.39045 8.9277 7.53001 9.03158 7.68709 9.16238C7.68709 8.45582 7.68459 7.78994 7.68959 7.12343C7.69022 7.02016 7.65643 6.9507 7.58508 6.8806C7.2246 6.52638 6.86976 6.16716 6.51178 5.81106C6.41853 5.71843 6.35219 5.61642 6.38787 5.47874C6.45108 5.23529 6.73082 5.15706 6.91669 5.33793C7.16577 5.5795 7.40609 5.83171 7.65017 6.07891ZM7.67395 15.3688C7.67395 14.0651 7.67395 12.7747 7.67395 11.4598C6.89291 12.6063 5.83338 13.2403 4.4772 13.383C4.4772 14.0476 4.4772 14.7047 4.4772 15.3688C5.54612 15.3688 6.60566 15.3688 7.67395 15.3688ZM8.32168 12.7897C8.32168 13.659 8.32168 14.512 8.32168 15.3637C9.32865 15.3637 10.3243 15.3637 11.3219 15.3637C11.3219 14.7154 11.3219 14.0789 11.3219 13.4268C10.181 13.8643 9.18658 13.6533 8.32168 12.7897Z" fill="#463839"/>
<path d="M11.9653 13.4005C11.9653 14.0676 11.9653 14.7123 11.9653 15.375C12.0322 15.375 12.0936 15.375 12.1543 15.375C13.2952 15.375 14.4354 15.375 15.5763 15.375C15.6233 15.375 15.6702 15.3719 15.7171 15.3769C15.8748 15.3938 15.9963 15.5258 15.9994 15.6804C16.0031 15.8406 15.8792 15.9802 15.7153 15.9977C15.6689 16.0027 15.6214 15.9996 15.5744 15.9996C10.5277 15.9996 5.48041 15.9996 0.433709 15.9996C0.147704 15.9996 0.00188542 15.8951 7.92281e-06 15.6892C-0.00124374 15.4827 0.145827 15.375 0.429328 15.375C1.502 15.375 2.5753 15.375 3.64798 15.375C3.70493 15.375 3.76188 15.375 3.83135 15.375C3.83135 14.711 3.83135 14.0526 3.83135 13.4105C3.48839 13.3273 3.13855 13.2716 2.80874 13.1577C1.62279 12.7459 0.789807 11.9498 0.304788 10.7914C0.215294 10.578 0.270993 10.404 0.442471 10.3296C0.62271 10.2513 0.784174 10.3346 0.881804 10.5567C1.39311 11.7208 2.27052 12.4367 3.51468 12.7002C3.61606 12.7215 3.71932 12.7328 3.84449 12.7522C3.84449 12.6927 3.84449 12.6433 3.84449 12.5938C3.84449 11.8441 3.84699 11.0937 3.84011 10.344C3.83948 10.267 3.80068 10.1725 3.74748 10.1168C3.44834 9.80449 3.13855 9.50284 2.8344 9.19618C2.67606 9.03659 2.66292 8.84696 2.7981 8.71491C2.93516 8.58036 3.11352 8.59538 3.27811 8.75935C3.45772 8.93771 3.63421 9.1192 3.84511 9.33261C3.84511 8.97526 3.84199 8.66547 3.84637 8.35631C3.84887 8.18484 3.97091 8.05341 4.12924 8.03526C4.26442 8.01962 4.41212 8.11474 4.4528 8.25368C4.46844 8.30687 4.46844 8.36633 4.46844 8.42328C4.46969 9.10043 4.46907 9.77758 4.46907 10.4547C4.46907 10.5117 4.46907 10.5693 4.46907 10.6569C4.51851 10.6149 4.55293 10.5899 4.58234 10.5605C4.86647 10.2776 5.14809 9.99224 5.4341 9.71124C5.56678 9.58044 5.70634 9.56542 5.84402 9.65366C5.9648 9.73064 6.02175 9.8896 5.96168 10.0229C5.93289 10.0867 5.88157 10.1437 5.83088 10.195C5.41282 10.6162 4.98913 11.033 4.57546 11.4586C4.51851 11.5174 4.47595 11.6163 4.47345 11.6983C4.46218 12.0456 4.46844 12.3936 4.46844 12.7509C5.12682 12.6877 5.70947 12.4718 6.22703 12.0925C6.9436 11.5681 7.40359 10.8715 7.60636 10.0048C7.62826 9.91276 7.61199 9.86519 7.53439 9.81262C6.23329 8.92457 5.40969 7.71358 5.08363 6.16841C5.0004 5.77476 4.99915 5.7685 4.58923 5.72469C3.57726 5.61642 2.67418 5.88303 1.88689 6.53202C1.42753 6.91064 1.09459 7.38064 0.870539 7.93137C0.800446 8.10285 0.695306 8.17169 0.538223 8.1573C0.390527 8.14353 0.294774 8.05779 0.267864 7.91823C0.254095 7.84751 0.267238 7.76115 0.296026 7.69356C0.873668 6.33363 1.88376 5.48437 3.3263 5.16019C3.86577 5.03878 4.41024 5.05005 4.94658 5.14955C4.97349 4.83414 4.986 4.52185 5.02981 4.21394C5.22883 2.81458 5.86342 1.64365 6.92358 0.711785C7.19581 0.472718 7.50748 0.279336 7.80287 0.0671793C7.93117 -0.0248179 8.06259 -0.0166821 8.19652 0.0653018C9.68349 0.976512 10.6103 2.28137 10.9327 3.99865C11.0096 4.41045 11.0209 4.83414 11.0609 5.23404C11.3451 5.20963 11.6524 5.15894 11.959 5.16145C13.1825 5.16958 14.3322 6.18343 14.4961 7.39754C14.5312 7.65789 14.5087 7.92637 14.5218 8.19047C14.5243 8.23928 14.5606 8.305 14.6013 8.33003C15.3423 8.78814 15.7897 9.44526 15.9568 10.2983C16.2478 11.7834 15.1833 13.3292 13.6926 13.5976C13.1018 13.7022 12.5354 13.6377 11.9653 13.4005ZM11.9578 9.91776C11.9703 9.92214 11.9834 9.9259 11.9959 9.93028C12.2306 9.69434 12.4628 9.4559 12.7019 9.22434C12.7588 9.16927 12.8346 9.11732 12.9097 9.09918C13.0498 9.06601 13.1675 9.12609 13.237 9.25376C13.3152 9.39645 13.2783 9.52537 13.1675 9.63614C12.7958 10.0085 12.4215 10.3777 12.0548 10.7545C12.0034 10.8071 11.9634 10.8959 11.9621 10.9679C11.9546 11.4992 11.9603 12.0299 11.9559 12.5613C11.9553 12.6595 11.9909 12.7108 12.0748 12.754C12.4979 12.9718 12.9397 13.0582 13.4166 13.005C14.4717 12.8867 15.3541 11.9517 15.3704 10.8865C15.3854 9.92402 14.9567 9.2112 14.0937 8.77124C13.8553 8.6492 13.8328 8.56597 13.8615 8.29686C13.891 8.02087 13.9179 7.73111 13.8678 7.462C13.7226 6.67658 13.2482 6.13837 12.4947 5.88678C11.74 5.63457 11.0397 5.78665 10.4483 6.32174C9.76735 6.93818 9.58711 7.86378 9.95761 8.70428C10.0227 8.8526 10.0559 9.00092 9.92194 9.1192C9.85184 9.18116 9.75171 9.21558 9.65971 9.24437C8.5983 9.57856 8.03318 10.7601 8.4431 11.7921C8.86115 12.8448 10.0847 13.3192 11.0966 12.8304C11.2737 12.7446 11.3707 12.6445 11.3351 12.4405C11.3225 12.3698 11.3263 12.294 11.3344 12.2221C11.3482 12.0975 11.3031 12.0087 11.213 11.921C10.8657 11.5837 10.5246 11.2395 10.1854 10.8941C10.0552 10.7614 10.0552 10.5836 10.1716 10.4597C10.2905 10.3333 10.4821 10.3277 10.6197 10.4497C10.6817 10.5048 10.7386 10.5667 10.7968 10.6256C10.9627 10.7939 11.1279 10.9623 11.2938 11.1306C11.3069 11.1244 11.3194 11.1175 11.3326 11.1112C11.3326 11.0555 11.3326 11.0005 11.3326 10.9448C11.3326 10.4084 11.3338 9.87208 11.3319 9.33574C11.3313 9.18742 11.3757 9.06788 11.5172 9.00467C11.73 8.91017 11.9434 9.05599 11.9546 9.31133C11.9646 9.51473 11.9578 9.71624 11.9578 9.91776ZM7.65017 6.07891C7.66268 6.07266 7.67457 6.06577 7.68709 6.05951C7.68709 6.00319 7.68709 5.94624 7.68709 5.88991C7.68709 5.04629 7.68647 4.20267 7.68772 3.35905C7.68772 3.14439 7.80975 3.00358 7.99375 3.00045C8.18463 2.99732 8.31042 3.14001 8.31104 3.36406C8.3123 3.73392 8.31105 4.10379 8.31167 4.47303C8.31167 4.51621 8.31793 4.5594 8.32106 4.60946C8.34359 4.59757 8.35423 4.59444 8.36111 4.58756C8.5013 4.448 8.64148 4.30781 8.78167 4.16888C8.95252 3.9999 9.13526 3.98426 9.27232 4.12507C9.4075 4.26463 9.39248 4.43798 9.22664 4.60446C8.95878 4.87419 8.69155 5.14455 8.41869 5.40927C8.34234 5.48312 8.30792 5.55697 8.30854 5.66586C8.31292 6.76983 8.31104 7.8738 8.31104 8.97776C8.31104 9.0272 8.31104 9.07665 8.31104 9.12609C8.32669 9.1361 8.34234 9.14611 8.35798 9.15613C8.62396 8.89703 8.89182 8.63919 9.15404 8.37634C9.1797 8.35068 9.1822 8.28935 9.17719 8.24679C9.04765 7.17162 9.42064 6.3111 10.2755 5.6521C10.325 5.61392 10.3763 5.53882 10.3763 5.48125C10.3738 5.07696 10.3988 4.66641 10.34 4.26964C10.1184 2.78141 9.36244 1.61861 8.13081 0.758723C8.03443 0.691133 7.96684 0.68863 7.87171 0.757471C6.25144 1.92402 5.46852 3.49361 5.6231 5.49376C5.72511 6.81051 6.30526 7.90884 7.26466 8.80941C7.39045 8.9277 7.53001 9.03158 7.68709 9.16238C7.68709 8.45582 7.68459 7.78994 7.68959 7.12343C7.69022 7.02016 7.65643 6.9507 7.58508 6.8806C7.2246 6.52638 6.86976 6.16716 6.51178 5.81106C6.41853 5.71843 6.35219 5.61642 6.38787 5.47874C6.45108 5.23529 6.73082 5.15706 6.91669 5.33793C7.16577 5.5795 7.40609 5.83171 7.65017 6.07891ZM7.67395 15.3688C7.67395 14.0651 7.67395 12.7747 7.67395 11.4598C6.89291 12.6063 5.83338 13.2403 4.4772 13.383C4.4772 14.0476 4.4772 14.7047 4.4772 15.3688C5.54612 15.3688 6.60566 15.3688 7.67395 15.3688ZM8.32168 12.7897C8.32168 13.659 8.32168 14.512 8.32168 15.3637C9.32865 15.3637 10.3243 15.3637 11.3219 15.3637C11.3219 14.7154 11.3219 14.0789 11.3219 13.4268C10.181 13.8643 9.18658 13.6533 8.32168 12.7897Z" stroke="black" stroke-width="0.3" mask="url(#path-1-outside-1_5531_28073)"/>
</svg>
