<svg width="16" height="16" viewBox="0 0 16 16" fill="none" xmlns="http://www.w3.org/2000/svg">
<g clip-path="url(#clip0_5527_80129)">
<g clip-path="url(#clip1_5527_80129)">
<path d="M7.04433 6.11193L7.04427 6.11193C6.363 6.12171 5.70704 5.99606 5.16526 5.5519L5.16522 5.55187C4.81973 5.26838 4.5947 4.91037 4.42373 4.53062L4.42369 4.53052C4.15234 3.92611 4.01935 3.29396 3.97012 2.65024L3.97011 2.65023C3.93677 2.21395 3.91951 1.77684 3.90236 1.34234C3.90172 1.32607 3.90108 1.30979 3.90043 1.29352L3.90043 1.29345C3.89599 1.17893 3.92606 1.07485 4.00455 1.00074C4.08132 0.928257 4.18813 0.9 4.30466 0.9H4.30473C5.11956 0.900566 5.93686 0.932761 6.74611 1.08114L6.74615 1.08115C7.30486 1.18386 7.84843 1.34 8.35031 1.61325L8.30249 1.70107L8.35031 1.61325C9.00694 1.97077 9.39395 2.50009 9.51316 3.1958C9.62716 3.85936 9.54834 4.50274 9.20076 5.10823C9.20074 5.10827 9.20072 5.1083 9.2007 5.10834L9.11398 5.05855C9.08702 5.10564 9.05374 5.14966 9.02043 5.19372C8.99144 5.23206 8.96243 5.27042 8.93754 5.31087L7.04433 6.11193ZM7.04433 6.11193C7.51404 6.10488 7.9693 6.01739 8.40767 5.81387M7.04433 6.11193L8.40767 5.81387M4.51491 4.48956C4.68213 4.86099 4.89914 5.20419 5.22866 5.47457C5.74506 5.89792 6.37397 6.02154 7.04283 6.01194L4.51491 4.48956ZM4.51491 4.48956C4.24934 3.898 4.11839 3.27764 4.06982 2.64261C4.03662 2.2082 4.01943 1.77275 4.00226 1.33776C4.00162 1.32169 4.00099 1.30563 4.00036 1.28957M4.51491 4.48956L4.00036 1.28957M8.40767 5.81387C8.41751 5.8328 8.42641 5.85045 8.4349 5.8688L8.43489 5.86881L8.43541 5.8699C8.83392 6.70418 9.06279 7.58187 9.19516 8.48581C9.29889 9.19566 9.34472 9.9099 9.34411 10.627V10.6271C9.34411 10.6941 9.35019 10.7615 9.36317 10.828L9.36324 10.8283C9.39499 10.9883 9.53347 11.0883 9.6899 11.0988C9.68999 11.0988 9.69008 11.0988 9.69017 11.0988L9.69678 10.9991M8.40767 5.81387L10.0967 10.7092L9.99678 10.7044M9.69678 10.9991C9.8769 11.0115 9.98756 10.9014 9.99678 10.7044M9.69678 10.9991C9.57751 10.9911 9.48284 10.9172 9.46132 10.8088L9.69678 10.9991ZM9.99678 10.7044C10.001 10.6175 10.0046 10.5304 10.0082 10.4434C10.0174 10.2224 10.0267 10.0012 10.0447 9.78092L13.7494 7.03199L13.7495 7.03197C14.3541 6.91721 14.845 6.63251 15.2016 6.15473M9.99678 10.7044L10.0967 10.7091C10.1009 10.6208 10.1046 10.533 10.1082 10.4455C10.1174 10.2253 10.1265 10.0073 10.1444 9.78919C10.2113 8.9833 10.3879 8.2013 10.7271 7.45845L10.7271 7.45843C10.8323 7.22803 10.9543 7.00683 11.0803 6.77836C11.1192 6.70785 11.1585 6.63666 11.1978 6.56428C11.2443 6.59876 11.2867 6.62995 11.3293 6.65749C11.3293 6.65752 11.3294 6.65755 11.3294 6.65759L11.3837 6.57359M11.3837 6.57359C11.4507 6.61706 11.5202 6.65826 11.5927 6.69213M11.3837 6.57359C11.3408 6.54591 11.3 6.51563 11.2519 6.47989C11.2498 6.47837 11.2478 6.47684 11.2457 6.4753L11.3837 6.57359ZM11.5927 6.69213L11.5502 6.78264C11.5503 6.78267 11.5503 6.78271 11.5504 6.78274L11.5927 6.69213ZM11.5927 6.69213C12.2726 7.01162 12.9895 7.07372 13.7309 6.93373C14.3137 6.82309 14.7815 6.55045 15.1215 6.09492M15.1215 6.09492L15.2016 6.15479C15.2016 6.15477 15.2016 6.15475 15.2016 6.15473M15.1215 6.09492C15.4307 5.68116 15.617 5.22112 15.7424 4.73793L15.2016 6.15473M15.1215 6.09492L15.2016 6.15473M4.00036 1.28957C3.99298 1.09935 4.10056 1 4.30466 1L4.00036 1.28957ZM10.7161 5.95226C10.3431 5.11381 10.3111 4.26709 10.7576 3.43309L10.7576 3.43306C10.9977 2.98503 11.4137 2.70688 11.8609 2.49469C12.4343 2.22252 13.0507 2.08804 13.6758 2.00442L10.7161 5.95226ZM10.7161 5.95226C10.7161 5.95217 10.716 5.95207 10.716 5.95197L10.8077 5.91203L10.7163 5.95269C10.7162 5.95255 10.7162 5.9524 10.7161 5.95226ZM11.5836 6.08359C11.6054 6.05784 11.6273 6.03245 11.6493 6.0074L11.5836 6.08359ZM11.5836 6.08359C11.5562 6.06475 11.5284 6.04597 11.4999 6.02775L11.5836 6.08359ZM7.45288 5.47231C7.02746 5.53666 6.60696 5.5186 6.19077 5.40683L7.45288 5.47231ZM7.45288 5.47231C7.67782 5.4383 7.89714 5.38405 8.10387 5.28552L7.45288 5.47231ZM6.42622 3.5469L6.37266 3.63134C6.76159 3.87805 7.13241 4.13084 7.44156 4.44764L7.44162 4.4477C7.6703 4.68167 7.87619 4.92923 8.05048 5.20014C7.85862 5.28995 7.65322 5.34088 7.43793 5.37343L7.43793 5.37343C7.02526 5.43585 6.61873 5.41821 6.2167 5.31025L6.2166 5.31022C5.7357 5.18166 5.43673 4.87115 5.2122 4.467L5.21218 4.46697C4.97573 4.04096 4.83965 3.58395 4.78139 3.10966L4.78138 3.10965C4.73759 2.75318 4.71018 2.39618 4.68257 2.03653C4.67152 1.89266 4.66045 1.74836 4.64827 1.6035C5.48737 1.61481 6.31538 1.66496 7.11269 1.88551L7.11271 1.88552C7.41487 1.96902 7.70987 2.09427 7.9925 2.23435L7.99255 2.23437C8.39193 2.43203 8.63848 2.74401 8.73834 3.15345L8.73835 3.15349C8.86819 3.68495 8.83401 4.19682 8.5944 4.69102C8.14921 4.0524 7.57232 3.53512 6.88976 3.11675L6.88971 3.11671C6.85132 3.09322 6.81379 3.06793 6.77414 3.04119L6.7733 3.04063C6.73455 3.0145 6.69372 2.98697 6.65132 2.96101C6.50568 2.87122 6.30853 2.8885 6.1874 3.00445L6.25655 3.07669M6.42622 3.5469L6.37281 3.63144C6.30202 3.58671 6.22888 3.53282 6.16841 3.4675L6.16817 3.46724C6.0386 3.32627 6.05785 3.1281 6.1875 3.00435L6.25655 3.07669M6.42622 3.5469C6.35921 3.50456 6.29405 3.45602 6.24179 3.39957C6.15204 3.30192 6.1631 3.16588 6.25655 3.07669M6.42622 3.5469C6.81598 3.79413 7.1953 4.0521 7.51313 4.3778L6.59897 3.04621C6.49016 2.97904 6.34323 2.99371 6.25655 3.07669M4.5475 1.51198L4.60453 1.51501L4.60467 1.50294M4.5475 1.51198L4.64447 1.55889C4.64446 1.55867 4.64439 1.55657 4.64484 1.55044L4.64599 1.5367C4.64645 1.53117 4.64697 1.52457 4.64736 1.51728L4.60467 1.51501V1.50294M4.5475 1.51198C4.55448 1.51084 4.56113 1.50946 4.56757 1.50812C4.58039 1.50545 4.59239 1.50294 4.60467 1.50294M4.5475 1.51198L8.83549 3.12975C8.72852 2.69116 8.46233 2.3553 8.03691 2.14475C7.75104 2.00307 7.44981 1.87493 7.13935 1.78913C6.31495 1.56108 5.46104 1.5131 4.60467 1.50294M10.6485 6.29495C10.6984 6.21539 10.7483 6.13585 10.7972 6.05597L9.91116 7.76079C10.0046 7.51775 10.0993 7.27163 10.2169 7.03533C10.3433 6.78142 10.496 6.53809 10.6485 6.29495ZM12.5096 5.2287C12.8592 4.97524 13.2414 4.7679 13.6441 4.58637L13.6442 4.58635C13.7272 4.54884 13.797 4.50061 13.8409 4.43446C13.8872 4.36465 13.897 4.28643 13.8804 4.20723C13.8804 4.20721 13.8804 4.20719 13.8804 4.20717L13.7825 4.22765L12.5096 5.2287ZM12.5603 4.34588C12.0808 4.6218 11.65 4.9529 11.2732 5.34232C11.2474 5.23865 11.225 5.14783 11.2116 5.05299L11.2116 5.05296C11.1522 4.63497 11.1879 4.23149 11.3691 3.8463C11.53 3.50419 11.8357 3.29067 12.2057 3.11386C12.6364 2.90819 13.1038 2.79778 13.5891 2.72398C14.1677 2.63599 14.7516 2.59556 15.3387 2.59145C15.339 2.61754 15.3394 2.64332 15.3397 2.66889C15.3415 2.78666 15.3431 2.89962 15.337 3.01437L15.4368 3.01968L15.337 3.01437C15.3077 3.56607 15.2492 4.1098 15.1072 4.64159L15.1072 4.64165C15.0147 4.98933 14.8813 5.31968 14.6839 5.62649L12.5603 4.34588ZM11.2243 5.39354L11.297 5.46215L11.2245 5.39327C11.2244 5.39336 11.2243 5.39345 11.2243 5.39354Z" fill="#463839" stroke="#463839" stroke-width="0.2"/>
<path d="M7.68566 15.9622C7.53943 16.0209 7.41235 16.0037 7.27314 15.9475C5.67417 15.3057 4.07455 14.6659 2.47429 14.0292M7.68566 15.9622L13.6098 12.8761C13.602 12.8798 13.5947 12.8829 13.5873 12.8856C13.3918 12.9637 13.1963 13.0419 13.0008 13.12C11.2027 13.8389 9.40439 14.5578 7.60456 15.2725C7.54007 15.2981 7.44747 15.2936 7.38234 15.2674C6.52774 14.9284 5.6737 14.5877 4.81971 14.2471C4.08288 13.9531 3.34609 13.6592 2.60903 13.3664C2.51772 13.3306 2.41427 13.3102 2.31657 13.3096C1.81422 13.3057 1.31222 13.3062 0.810053 13.3067C0.642605 13.3069 0.475137 13.307 0.307628 13.307C0.217492 13.307 0.127406 13.3068 0.0373417 13.3065C-0.196731 13.3059 -0.430656 13.3052 -0.664913 13.3089M7.68566 15.9622C9.09155 15.3974 10.4982 14.8344 11.9048 14.2715C12.7279 13.942 13.5511 13.6126 14.374 13.2828C14.6665 13.1653 14.7163 12.906 14.4922 12.6793L7.68566 15.9622ZM2.47429 14.0292C2.38362 13.9935 2.28017 13.9743 2.18247 13.9737M2.47429 14.0292L2.43761 14.1223C2.43756 14.1223 2.43751 14.1222 2.43746 14.1222M2.47429 14.0292L2.43733 14.1222C2.43737 14.1222 2.43742 14.1222 2.43746 14.1222M2.18247 13.9737C1.54235 13.971 0.902226 13.9711 0.262105 13.9712C-0.0224224 13.9713 -0.30695 13.9713 -0.591478 13.9711M2.18247 13.9737L2.18205 14.0737C2.18197 14.0737 2.18189 14.0737 2.18181 14.0737M2.18247 13.9737L2.18181 14.0737M-0.591478 13.9711C-0.82711 13.9711 -0.975897 13.8587 -0.993138 13.6729C-1.0123 13.4686 -0.87628 13.3121 -0.664913 13.3089M-0.591478 13.9711V14.0711C-0.591501 14.0711 -0.591524 14.0711 -0.591547 14.0711M-0.591478 13.9711L-0.591547 14.0711M-0.664913 13.3089L-0.666488 13.2089C-0.666467 13.2089 -0.666445 13.2089 -0.666424 13.2089C-0.431197 13.2052 -0.19588 13.2059 0.0385051 13.2065C0.128369 13.2068 0.218096 13.207 0.307628 13.207C0.474922 13.207 0.642256 13.2069 0.809626 13.2067C1.31191 13.2062 1.81451 13.2057 2.31733 13.2096C2.42764 13.2103 2.54316 13.2332 2.6455 13.2733L2.64595 13.2735C3.38348 13.5665 4.12024 13.8604 4.85696 14.1543C5.71071 14.4948 6.56442 14.8354 7.41922 15.1745L7.41964 15.1746C7.46481 15.1928 7.53055 15.1943 7.56765 15.1796C9.3674 14.4649 11.1656 13.746 12.9637 13.0272C13.1534 12.9513 13.3431 12.8755 13.5327 12.7997M-0.664913 13.3089L13.5327 12.7997M13.5327 12.7997C13.5156 12.7827 13.4987 12.7658 13.4818 12.7491C13.3626 12.6305 13.2503 12.5188 13.1342 12.4101C13.1319 12.4092 13.1277 12.4078 13.1218 12.4067L13.5327 12.7997ZM8.65756 12.9724L8.69925 13.0633C8.77413 13.029 8.8595 13.0056 8.94526 12.992L8.94532 12.992C9.10866 12.966 9.27114 12.9443 9.43508 12.9225C9.52799 12.9101 9.62136 12.8977 9.71563 12.8843L9.7157 12.8843C10.0903 12.8311 10.4648 12.7776 10.8393 12.7242C11.588 12.6174 12.3365 12.5106 13.0851 12.4054L4.62442 11.6611C5.67179 12.1388 6.71981 12.614 7.76911 13.0866C8.08347 13.2282 8.39695 13.2028 8.69946 13.0632L8.65756 12.9724ZM8.65756 12.9724C8.37659 13.102 8.09371 13.1231 7.81018 12.9954M8.65756 12.9724C8.74249 12.9335 8.837 12.9079 8.92959 12.8932L7.81018 12.9954M7.81018 12.9954C6.76101 12.5229 5.71312 12.0478 4.66587 11.5701L7.81018 12.9954ZM-0.615743 10.5656C-0.121491 10.5644 0.372762 10.5642 0.867015 10.564C1.36127 10.5639 1.85552 10.5637 2.34977 10.5624C2.42832 10.5624 2.50878 10.5478 2.58413 10.5267L4.62053 9.25977C4.38378 9.32007 4.14906 9.38827 3.91429 9.45649C3.71149 9.51542 3.50865 9.57436 3.30444 9.62822C3.19985 9.6559 3.09612 9.6868 2.99244 9.71769C2.64161 9.8222 2.2913 9.92656 1.9098 9.90536M-0.615743 10.5656C-0.76006 10.5663 -0.878196 10.5273 -0.953547 10.399C-1.08573 10.1729 -0.921618 9.90664 -0.640648 9.90153C-0.388722 9.89701 -0.136476 9.89793 0.115863 9.89885C0.219791 9.89923 0.323735 9.89961 0.427679 9.89961C0.579081 9.89961 0.730603 9.89758 0.882117 9.89554C1.22522 9.89093 1.56828 9.88631 1.9098 9.90536M-0.615743 10.5656L-0.615301 10.6656C-0.615362 10.6656 -0.615424 10.6656 -0.615485 10.6656C-0.695917 10.666 -0.777088 10.6555 -0.851618 10.6218C-0.928073 10.5874 -0.991957 10.5311 -1.03978 10.4496L-1.03987 10.4495C-1.12522 10.3035 -1.11564 10.1406 -1.03685 10.0144C-0.958478 9.88895 -0.815225 9.80469 -0.642466 9.80155L-0.642443 9.80155C-0.389377 9.797 -0.135413 9.79793 0.117379 9.79886C0.221057 9.79924 0.324538 9.79961 0.427679 9.79961C0.576158 9.79961 0.726054 9.7976 0.876723 9.79558C1.22148 9.79095 1.57027 9.78627 1.91535 9.80551M-0.615743 10.5656L1.91535 9.80551M1.9098 9.90536L1.91535 9.80551M1.9098 9.90536L1.91537 9.80552L1.91535 9.80551M9.37439 12.0536C9.38647 12.052 9.3985 12.0505 9.4105 12.0489C9.55909 12.0295 9.70269 12.0107 9.84616 11.9897L9.84643 11.9896C10.0406 11.9618 10.2347 11.934 10.4289 11.9062C11.3165 11.779 12.2037 11.652 13.0906 11.521C13.2061 11.5039 13.3139 11.5088 13.4159 11.5436C13.5181 11.5784 13.6073 11.6409 13.6891 11.7285L13.6161 11.7968L13.6891 11.7285C13.8683 11.9202 14.0535 12.1031 14.2405 12.2876C14.3478 12.3935 14.4557 12.5 14.5633 12.6091C14.6904 12.7375 14.7542 12.8908 14.725 13.0411C14.6956 13.1921 14.5784 13.3084 14.4113 13.3755L14.4112 13.3756C13.5883 13.7054 12.7651 14.0348 11.942 14.3643C10.5354 14.9272 9.12884 15.4902 7.72294 16.055C7.54556 16.1262 7.39062 16.1028 7.2358 16.0403C5.63697 15.3986 4.03753 14.7588 2.43746 14.1222M9.37439 12.0536L-1.09271 13.6822C-1.0816 13.8017 -1.02673 13.9027 -0.933996 13.9719C-0.843319 14.0395 -0.72431 14.0711 -0.591547 14.0711M9.37439 12.0536C9.39763 11.7967 9.35524 11.5635 9.24399 11.3651C9.13097 11.1636 8.95098 11.0053 8.71301 10.8951M9.37439 12.0536L8.71302 10.8951C8.71302 10.8951 8.71302 10.8951 8.71301 10.8951M2.43746 14.1222C2.35883 14.0912 2.26771 14.0742 2.18181 14.0737M2.18181 14.0737C1.54202 14.071 0.902371 14.0711 0.262467 14.0712C-0.0221437 14.0713 -0.306803 14.0713 -0.591547 14.0711M8.71301 10.8951C7.48122 10.3242 6.24847 9.75382 5.01181 9.19234L5.01145 9.19218C4.88659 9.13607 4.72251 9.13082 4.59601 9.16282L4.59584 9.16286C4.37341 9.21952 4.15308 9.28301 3.93435 9.34653C3.91843 9.35115 3.90252 9.35577 3.88662 9.36039C3.68357 9.41939 3.48188 9.478 3.27893 9.53153L3.27885 9.53155C3.17269 9.55964 3.0675 9.59098 2.96407 9.62179C2.95405 9.62478 2.94406 9.62776 2.93408 9.63073C2.82041 9.66455 2.70864 9.6974 2.59621 9.72559C2.3716 9.7819 2.14846 9.81847 1.91535 9.80551M8.71301 10.8951L1.91535 9.80551M4.39225 11.081C4.44435 10.9664 4.53363 10.8849 4.648 10.8507L4.39225 11.081ZM4.39225 11.081C4.34193 11.191 4.33685 11.3092 4.37913 11.4156C4.42134 11.5217 4.50735 11.6078 4.62437 11.6611L4.39225 11.081ZM7.99445 12.2472L7.99446 12.2472C8.1697 12.3295 8.27136 12.3107 8.3362 12.2676C8.40986 12.2187 8.46675 12.1193 8.50894 11.9815L8.50903 11.9812C8.53086 11.9106 8.52368 11.8558 8.49864 11.8105C8.47213 11.7626 8.41905 11.7139 8.32851 11.6716L8.37085 11.581L8.32873 11.6717C7.7182 11.3882 7.10671 11.1057 6.49541 10.8232C6.39905 10.7787 6.3027 10.7342 6.20636 10.6897C6.09268 10.6372 5.97931 10.5846 5.86607 10.532C5.52712 10.3747 5.18933 10.2179 4.84799 10.0685L4.84793 10.0685C4.78587 10.0413 4.695 10.0347 4.63018 10.0523L7.99445 12.2472ZM7.99445 12.2472C7.2405 11.8931 6.4804 11.5508 5.72114 11.2088C5.48408 11.1021 5.24709 10.9954 5.0104 10.8883L7.99445 12.2472ZM10.4431 12.0052C11.3307 11.878 12.2182 11.7509 13.1052 11.6199L9.86063 12.0886C10.0548 12.0608 10.249 12.033 10.4431 12.0052Z" fill="#463839" stroke="#463839" stroke-width="0.2"/>
</g>
</g>
<defs>
<clipPath id="clip0_5527_80129">
<rect width="16.0003" height="16" fill="white"/>
</clipPath>
<clipPath id="clip1_5527_80129">
<rect width="17.6258" height="16" fill="white" transform="translate(-1)"/>
</clipPath>
</defs>
</svg>
