<svg width="207" height="120" viewBox="0 0 207 120" fill="none" xmlns="http://www.w3.org/2000/svg">
<mask id="mask0_1040_63342" style="mask-type:alpha" maskUnits="userSpaceOnUse" x="0" y="0" width="207" height="120">
<rect width="207" height="120" rx="8" fill="#37CBCB"/>
</mask>
<g mask="url(#mask0_1040_63342)">
<rect width="207" height="120" rx="8" fill="#37CBCB"/>
<path d="M172.885 119.809L120.815 132.108C119.556 132.376 118.32 131.573 118.054 130.317L104.271 65.3611C104.004 64.1028 104.808 62.8674 106.065 62.601L159.821 51.6628L172.885 119.809Z" fill="#30ABAB"/>
<path d="M172.089 119.824L224.875 111.113C226.139 110.874 226.971 109.659 226.732 108.396L214.476 43.1353C214.237 41.8724 213.022 41.0414 211.758 41.2804L157.94 51.8989L172.089 119.824Z" fill="#30ABAB"/>
<path d="M172.091 118.322L170.529 117.925C162.847 115.973 154.771 116.206 147.209 118.597L119.33 131.664L107.767 62.2439L135.648 49.1759C143.208 46.7859 151.284 46.5526 158.969 48.5035L160.531 48.9002L172.091 118.322Z" fill="#EDECE1"/>
<path d="M172.09 118.321L170.529 117.925C162.847 115.973 154.77 116.206 147.208 118.597L121.674 129.543L110.114 60.1217L135.648 49.1758C143.208 46.7858 151.284 46.5525 158.969 48.5034L160.53 48.9001L172.09 118.321Z" fill="#F7F6EB"/>
<path d="M171.969 118.339L173.319 117.457C179.953 113.114 187.667 110.711 195.593 110.517L223.291 112.573L210.935 40.1692L184.981 40.349C177.055 40.5435 168.392 43.6964 161.756 48.0372L160.407 48.9192L171.969 118.339Z" fill="#EDECE1"/>
<path d="M117.311 64.9844L137.347 58.3699C143.24 56.8341 149.43 56.3456 155.217 56.9632L156.393 57.089" stroke="#4DB0B0" stroke-width="3.9776" stroke-miterlimit="10"/>
<path d="M117.722 69.1055L137.757 62.491C143.65 60.9552 149.84 60.4667 155.628 61.0843L156.803 61.2101" stroke="#4DB0B0" stroke-width="3.9776" stroke-miterlimit="10"/>
<path d="M118.133 73.2266L138.169 66.6121C144.062 65.0762 150.252 64.5878 156.039 65.2054L157.215 65.3312" stroke="#4DB0B0" stroke-width="3.9776" stroke-miterlimit="10"/>
<path d="M117.311 64.9844L137.346 58.3699C143.239 56.8341 149.429 56.3456 155.216 56.9632L156.392 57.089" stroke="#4DB0B0" stroke-width="3.9776" stroke-miterlimit="10"/>
<path d="M117.721 69.1055L137.757 62.491C143.65 60.9552 149.84 60.4667 155.627 61.0843L156.803 61.2101" stroke="#F7F6EB" stroke-width="3.9776" stroke-miterlimit="10"/>
<path d="M118.133 73.2266L138.169 66.6121C144.062 65.0762 150.251 64.5878 156.039 65.2054L157.214 65.3312" stroke="#4DB0B0" stroke-width="3.9776" stroke-miterlimit="10"/>
<path d="M119.863 80.2578L139.899 73.6433C145.791 72.1075 151.981 71.6191 157.769 72.2367L158.944 72.3624" stroke="#4DB0B0" stroke-width="3.9776" stroke-miterlimit="10"/>
<path d="M120.274 84.375L140.31 77.7605C146.203 76.2247 152.393 75.7363 158.18 76.3539L159.356 76.4796" stroke="#F7F6EB" stroke-width="3.9776" stroke-miterlimit="10"/>
<path d="M120.684 88.5L140.719 81.8855C146.612 80.3497 152.802 79.8613 158.59 80.4789L159.765 80.6046" stroke="#4DB0B0" stroke-width="3.9776" stroke-miterlimit="10"/>
<path d="M122.743 96.4805L142.779 89.866C148.672 88.3302 154.862 87.8417 160.649 88.4593L161.825 88.5851" stroke="#4DB0B0" stroke-width="3.9776" stroke-miterlimit="10"/>
<path d="M123.152 100.598L143.188 93.9831C149.174 92.4239 157.317 92.1767 161.058 92.5765L162.234 92.7023" stroke="#F7F6EB" stroke-width="3.9776" stroke-miterlimit="10"/>
<path d="M123.564 104.723L143.6 98.1081C149.68 96.5217 159.779 96.5207 161.47 96.7015L162.646 96.8273" stroke="#4DB0B0" stroke-width="3.9776" stroke-miterlimit="10"/>
<path d="M124.666 110.895L144.702 104.28C150.595 102.744 156.785 102.256 162.572 102.873L163.748 102.999" stroke="#4DB0B0" stroke-width="3.9776" stroke-miterlimit="10"/>
<path d="M125.575 114.973L145.611 108.358C151.504 106.822 157.694 106.334 163.481 106.952L164.657 107.077" stroke="#F7F6EB" stroke-width="3.9776" stroke-miterlimit="10"/>
<path d="M126.483 119.047L146.519 112.432C152.412 110.897 158.602 110.408 164.389 111.026L165.565 111.151" stroke="#4DB0B0" stroke-width="3.9776" stroke-miterlimit="10"/>
<path d="M166.665 55.1871C166.665 55.1871 174.463 51.0979 179.342 49.6252C186.754 47.3865 199.168 46.9763 204.955 47.5939L206.131 47.7196" stroke="#4DB0B0" stroke-width="3.9776" stroke-miterlimit="10"/>
<path d="M167.696 59.6445C167.696 59.6445 178.437 54.5241 183.623 53.4276C190.363 52.0045 199.577 51.0929 205.366 51.7068L206.541 51.8325" stroke="#F7F6EB" stroke-width="3.9776" stroke-miterlimit="10"/>
<path d="M168.727 64.1094C168.727 64.1094 182.395 57.882 187.904 57.2374C193.953 56.5319 199.987 55.2131 205.774 55.8307L206.95 55.9565" stroke="#4DB0B0" stroke-width="3.9776" stroke-miterlimit="10"/>
<path d="M169.603 70.8867L189.639 64.2722C195.532 62.7364 201.722 62.248 207.509 62.8656L208.685 62.9913" stroke="#4DB0B0" stroke-width="3.9776" stroke-miterlimit="10"/>
<path d="M170.012 75.0039L190.048 68.3894C195.941 66.8536 202.131 66.3652 207.918 66.9828L209.094 67.1085" stroke="#F7F6EB" stroke-width="3.9776" stroke-miterlimit="10"/>
<path d="M170.424 79.1289L190.46 72.5144C196.353 70.9786 202.542 70.4902 208.33 71.1078L209.505 71.2335" stroke="#4DB0B0" stroke-width="3.9776" stroke-miterlimit="10"/>
<path d="M172.478 87.1055L192.514 80.491C198.407 78.9552 204.597 78.4667 210.384 79.0843L211.56 79.2101" stroke="#4DB0B0" stroke-width="3.9776" stroke-miterlimit="10"/>
<path d="M172.889 91.2266L192.924 84.6121C198.91 83.0528 207.054 82.8056 210.795 83.2054L211.97 83.3312" stroke="#F7F6EB" stroke-width="3.9776" stroke-miterlimit="10"/>
<path d="M173.3 95.3477L193.336 88.7331C199.416 87.1467 209.515 87.1457 211.206 87.3265L212.382 87.4523" stroke="#4DB0B0" stroke-width="3.9776" stroke-miterlimit="10"/>
<path d="M174.402 101.523L194.438 94.9089C200.331 93.3731 206.52 92.8847 212.308 93.5023L213.483 93.628" stroke="#4DB0B0" stroke-width="3.9776" stroke-miterlimit="10"/>
<path d="M175.314 105.602L195.35 98.9871C201.243 97.4512 207.433 96.9628 213.22 97.5804L214.396 97.7062" stroke="#F7F6EB" stroke-width="3.9776" stroke-miterlimit="10"/>
<path d="M176.221 109.672L196.257 103.057C202.15 101.522 208.34 101.033 214.127 101.651L215.303 101.776" stroke="#4DB0B0" stroke-width="3.9776" stroke-miterlimit="10"/>
</g>
</svg>
