<svg width="19" height="16" viewBox="0 0 19 16" fill="none" xmlns="http://www.w3.org/2000/svg">
<path d="M5.33551 2.136C5.3704 1.79351 5.36328 1.47239 5.44232 1.17476C5.63172 0.460597 6.23338 0.00988258 6.97175 0.0056104C8.38798 -0.00150989 9.80349 -0.00222192 11.2197 0.0056104C12.1297 0.0105946 12.8168 0.708383 12.831 1.61978C12.8339 1.78497 12.8318 1.94945 12.8318 2.13671C12.9129 2.13671 12.982 2.13671 13.0511 2.13671C14.562 2.13671 16.0729 2.13671 17.5831 2.13671C18.0046 2.13671 18.1997 2.33181 18.1997 2.75831C18.2004 6.62107 18.2012 10.4838 18.199 14.3466C18.1983 15.2986 17.5027 15.9978 16.5535 15.9985C11.5829 16.0006 6.61218 16.0006 1.64151 15.9985C0.701628 15.9978 0.00241588 15.2986 0.00170385 14.3587C-0.00114426 10.4781 0.000279796 6.59757 0.000991825 2.71702C0.000991825 2.35246 0.221721 2.13742 0.591264 2.13671C2.10789 2.136 3.62451 2.13671 5.14113 2.13671C5.21091 2.136 5.27997 2.136 5.33551 2.136ZM1.09752 6.05358C1.08684 6.05786 1.07616 6.06213 1.06547 6.0664C1.06547 6.1255 1.06547 6.1846 1.06547 6.2437C1.06547 8.91523 1.06547 11.5875 1.06547 14.259C1.06547 14.746 1.25416 14.934 1.7419 14.934C6.64707 14.934 11.5522 14.934 16.4574 14.934C16.9459 14.934 17.1345 14.746 17.1345 14.2597C17.1345 11.5882 17.1345 8.91594 17.1345 6.24441C17.1345 6.18246 17.1345 6.12051 17.1345 6.05857C17.0904 6.09559 17.0747 6.13689 17.0605 6.17961C16.8134 6.9187 16.5656 7.65778 16.3193 8.39687C16.0508 9.20075 15.4947 9.6002 14.6424 9.60091C13.7481 9.60091 12.8531 9.60091 11.9588 9.60091C11.8969 9.60091 11.8349 9.60091 11.7666 9.60091C11.7666 9.78889 11.7687 9.94838 11.7658 10.1086C11.7609 10.4411 11.5394 10.6661 11.2069 10.6668C9.80278 10.669 8.39866 10.669 6.99454 10.6668C6.66131 10.6661 6.43987 10.4418 6.43488 10.1093C6.43275 9.94482 6.43417 9.78105 6.43417 9.60091C6.35229 9.60091 6.28821 9.60091 6.22484 9.60091C5.30062 9.60091 4.37641 9.60376 3.4522 9.6002C2.7658 9.59735 2.19974 9.21784 1.95195 8.57915C1.8067 8.20533 1.68992 7.82013 1.56176 7.4399C1.40654 6.9778 1.25203 6.51569 1.09752 6.05358ZM16.9224 3.2133C11.6982 3.2133 6.49469 3.2133 1.28549 3.2133C1.29119 3.24249 1.29261 3.25958 1.29831 3.27596C1.83589 4.88942 2.37276 6.50216 2.91248 8.11491C3.01359 8.41681 3.18875 8.535 3.51414 8.535C4.43836 8.53643 5.36257 8.53572 6.28678 8.535C6.33235 8.535 6.37721 8.5286 6.43488 8.52361C6.43488 8.35415 6.43346 8.19537 6.43488 8.03658C6.43844 7.69267 6.65846 7.46981 7.00308 7.46981C8.40151 7.46839 9.79922 7.46839 11.1976 7.46981C11.5416 7.47052 11.7616 7.69267 11.7658 8.03658C11.768 8.19964 11.7658 8.36341 11.7658 8.53572C11.8556 8.53572 11.9204 8.53572 11.9844 8.53572C12.8609 8.53572 13.7382 8.53572 14.6147 8.53572C15.0383 8.53572 15.1857 8.42962 15.3182 8.03231C15.5645 7.29323 15.8116 6.55414 16.058 5.81434C16.3449 4.95208 16.6311 4.08981 16.9224 3.2133ZM6.43346 2.12461C8.22208 2.12461 9.98862 2.12461 11.7666 2.12461C11.7666 1.96013 11.768 1.80704 11.7666 1.65396C11.763 1.28797 11.5465 1.07081 11.1791 1.06938C10.7469 1.06725 10.3147 1.06867 9.88253 1.06867C8.92342 1.06867 7.96432 1.06725 7.00522 1.06938C6.65988 1.07009 6.43916 1.29082 6.43346 1.63331C6.43132 1.7928 6.43346 1.9523 6.43346 2.12461ZM10.6871 9.59379C10.6871 9.23279 10.6871 8.88746 10.6871 8.54853C9.61765 8.54853 8.56171 8.54853 7.51005 8.54853C7.51005 8.90455 7.51005 9.24561 7.51005 9.59379C8.57168 9.59379 9.62335 9.59379 10.6871 9.59379Z" fill="#463839"/>
</svg>
