<svg width="19" height="16" viewBox="0 0 19 16" fill="none" xmlns="http://www.w3.org/2000/svg">
<path d="M2.846 12.3257C2.77003 12.3257 2.71369 12.3257 2.65672 12.3257C1.93507 12.3257 1.21342 12.3263 0.4924 12.325C0.275905 12.3244 0.109419 12.2111 0.0353546 12.0237C-0.0368105 11.8408 0.00053811 11.6414 0.156263 11.5046C0.881079 10.8653 1.38054 10.0658 1.78567 9.20232C2.30349 8.09958 2.6276 6.93924 2.75104 5.72826C2.80675 5.18449 2.83333 4.63692 2.8422 4.09062C2.85676 3.21641 2.84536 2.3422 2.84663 1.46799C2.84663 1.14261 3.04097 0.948908 3.36761 0.948908C4.08926 0.948275 4.81091 0.948908 5.53193 0.948908C5.5889 0.948908 5.64587 0.948908 5.72247 0.948908C5.72247 0.79255 5.7212 0.646954 5.72247 0.501358C5.725 0.210798 5.92694 -0.000633027 6.19851 0.000633027C6.46944 0.00253211 6.66631 0.213963 6.66885 0.507055C6.67011 0.64822 6.66885 0.789385 6.66885 0.939412C7.45886 0.939412 8.23622 0.939412 9.04017 0.939412C9.04017 0.805211 9.03953 0.665945 9.04017 0.526046C9.04143 0.217128 9.23071 0.00379816 9.50734 0.000633027C9.7903 -0.00316514 9.98591 0.212697 9.98717 0.529211C9.98781 0.66088 9.98717 0.791917 9.98717 0.935614C10.7848 0.935614 11.5767 0.935614 12.3901 0.935614C12.3901 0.793816 12.3889 0.64822 12.3901 0.503257C12.3927 0.210798 12.5921 0 12.8637 0C13.1346 0 13.334 0.212064 13.3365 0.50389C13.3378 0.645055 13.3365 0.786853 13.3365 0.948275C13.403 0.948275 13.4587 0.948275 13.5144 0.948275C14.2253 0.948275 14.9362 0.947642 15.6471 0.948275C15.9927 0.948275 16.1807 1.13818 16.1807 1.48698C16.1807 5.55291 16.1807 9.61885 16.1807 13.6848C16.1807 14.0323 15.9921 14.2222 15.6458 14.2222C11.559 14.2222 7.47216 14.2222 3.38533 14.2222C3.02957 14.2222 2.84473 14.0348 2.8441 13.6753C2.846 13.2328 2.846 12.7909 2.846 12.3257ZM3.78921 4.74707C3.67779 7.16334 3.05173 9.40615 1.56158 11.3787C1.62742 11.3787 1.65844 11.3787 1.69009 11.3787C5.31417 11.3787 8.93825 11.3793 12.5623 11.3742C12.6377 11.3742 12.7313 11.323 12.7858 11.266C13.4498 10.5747 13.9379 9.76761 14.3183 8.8934C14.7748 7.84447 15.0413 6.74554 15.1666 5.61115C15.1983 5.32629 15.209 5.03953 15.2299 4.74707C11.4064 4.74707 7.60446 4.74707 3.78921 4.74707ZM13.3384 1.90098C13.3384 2.05924 13.3397 2.20104 13.3384 2.34283C13.3353 2.63276 13.1327 2.84482 12.8618 2.84356C12.5908 2.84166 12.3939 2.63023 12.3914 2.33714C12.3901 2.19217 12.3914 2.04721 12.3914 1.90351C11.5792 1.90351 10.7918 1.90351 9.98844 1.90351C9.98844 2.05671 9.98971 2.20293 9.98781 2.34916C9.98401 2.63023 9.78524 2.83976 9.52127 2.84356C9.25033 2.84736 9.0446 2.63529 9.04143 2.34663C9.03953 2.20104 9.04143 2.05481 9.04143 1.90541C8.24319 1.90541 7.46203 1.90541 6.67011 1.90541C6.67011 2.05671 6.67138 2.19787 6.67011 2.33904C6.66758 2.63086 6.46754 2.84293 6.19724 2.84356C5.92631 2.84419 5.72564 2.63213 5.7231 2.3403C5.72184 2.19534 5.7231 2.04974 5.7231 1.90731C5.06792 1.90731 4.43426 1.90731 3.8025 1.90731C3.8025 2.53907 3.8025 3.15817 3.8025 3.78424C7.61459 3.78424 11.4184 3.78424 15.2267 3.78424C15.2267 3.15311 15.2267 2.52958 15.2267 1.90098C14.5969 1.90098 13.9778 1.90098 13.3384 1.90098ZM15.228 13.267C15.228 11.9161 15.228 10.5773 15.228 9.19599C15.1862 9.28334 15.1622 9.33335 15.1388 9.38336C14.6709 10.3867 14.0981 11.3185 13.3011 12.0997C13.1415 12.256 12.9675 12.3295 12.7383 12.3288C9.82512 12.3231 6.91193 12.325 3.99937 12.325C3.93354 12.325 3.86707 12.325 3.80187 12.325C3.80187 12.6517 3.80187 12.9555 3.80187 13.2664C7.61016 13.267 11.4115 13.267 15.228 13.267Z" fill="#463839"/>
</svg>
