<svg width="16" height="16" viewBox="0 0 16 16" fill="none" xmlns="http://www.w3.org/2000/svg">
<g clip-path="url(#clip0_5527_79326)">
<mask id="path-1-outside-1_5527_79326" maskUnits="userSpaceOnUse" x="1" y="-1" width="14" height="17" fill="black">
<rect fill="white" x="1" y="-1" width="14" height="17"/>
<path d="M11.2781 4.16364C11.2781 4.36433 11.2728 4.53039 11.2817 4.69587C11.2841 4.74164 11.3204 4.79621 11.3573 4.82849C11.6059 5.0415 11.594 5.76679 11.3941 5.98273C11.2728 6.11418 11.1342 6.2022 10.9587 6.24269C10.9194 6.25149 10.8635 6.29667 10.8582 6.33188C10.7386 7.13345 10.3478 7.76603 9.6649 8.22021C9.65657 8.2255 9.64646 8.2296 9.64051 8.23665C9.5138 8.39332 9.59114 8.56878 9.59708 8.73602C9.60125 8.85279 9.67085 8.9144 9.79458 8.92614C9.91712 8.93729 10.0373 8.97074 10.1598 8.98365C10.2021 8.98834 10.258 8.97309 10.2895 8.94609C10.4156 8.83988 10.55 8.80291 10.7148 8.83988C10.8974 8.88037 11.0842 8.90502 11.2692 8.93494C11.4102 8.95783 11.5095 9.03529 11.5887 9.15147C11.6196 9.19724 11.6797 9.24947 11.7296 9.25299C12.8206 9.3281 13.9984 10.4043 13.999 11.8496C13.999 12.6453 14.0014 13.4416 13.9984 14.2373C13.9966 14.6915 13.6796 14.9996 13.2215 14.9996C9.74163 15.0001 6.26114 15.0001 2.78124 14.9996C2.33094 14.9996 2.0109 14.6921 2.00852 14.2485C2.00436 13.4428 1.99008 12.6365 2.0115 11.8314C2.04184 10.6995 2.60754 9.89554 3.63783 9.41495C3.82521 9.32751 4.04769 9.31402 4.25053 9.25651C4.31299 9.23891 4.3814 9.19783 4.41828 9.14737C4.50156 9.0347 4.59912 8.95783 4.74069 8.93494C4.9358 8.90326 5.13032 8.87215 5.32424 8.83401C5.46701 8.80585 5.58301 8.85162 5.69841 8.92849C5.74778 8.96135 5.81976 8.97954 5.87865 8.97484C6.00595 8.96428 6.13444 8.94433 6.25698 8.90854C6.31111 8.89269 6.38368 8.83577 6.39141 8.78883C6.41699 8.63626 6.42056 8.47958 6.42175 8.32408C6.42175 8.29181 6.3813 8.24956 6.34799 8.22784C5.66093 7.77014 5.26357 7.13639 5.14698 6.32777C5.14222 6.2955 5.09285 6.25207 5.05715 6.24386C4.68061 6.1576 4.47539 5.90469 4.46587 5.52737C4.45873 5.24747 4.47063 4.97871 4.70322 4.77392C4.71868 4.75983 4.72641 4.72991 4.72641 4.70761C4.7282 4.53743 4.7276 4.36726 4.7276 4.18242C4.59495 4.17596 4.47301 4.17244 4.35106 4.16423C3.77941 4.12667 3.30828 3.63199 3.3059 3.06632C3.30471 2.85155 3.42428 2.72714 3.64081 2.72538C3.94775 2.72304 4.2547 2.72069 4.56164 2.72656C4.66455 2.7289 4.69548 2.69252 4.70738 2.5957C4.75616 2.2043 4.7978 1.81056 4.87037 1.42268C5.05477 0.439782 5.88638 -0.13822 6.89288 0.0366478C7.66857 0.171026 8.43474 0.159877 9.20686 0.0237381C10.0789 -0.130005 10.9658 0.480858 11.1205 1.34053C11.1943 1.74777 11.2478 2.15912 11.296 2.57047C11.3109 2.69839 11.3537 2.73125 11.4786 2.72714C11.7701 2.71775 12.0628 2.72304 12.3548 2.7248C12.5833 2.72656 12.7022 2.84685 12.7004 3.06984C12.6963 3.63493 12.2252 4.12784 11.6511 4.16305C11.5339 4.17009 11.4156 4.16364 11.2781 4.16364ZM11.9248 14.5571C11.9248 14.5102 11.9248 14.4644 11.9248 14.418C11.9248 14.1986 11.9242 13.9785 11.9248 13.7591C11.9259 13.4539 11.8123 13.1969 11.6291 12.9516C11.4822 12.755 11.3638 12.5321 11.268 12.3061C11.1729 12.082 11.1752 12.062 10.9183 12.062C9.62147 12.062 8.32469 12.062 7.02731 12.062C6.36405 12.062 5.70079 12.0638 5.03752 12.0608C4.88703 12.0603 4.7978 12.1148 4.76211 12.2656C4.69905 12.5321 4.55331 12.7556 4.38021 12.9675C4.28563 13.0831 4.19759 13.2157 4.15119 13.3547C4.01973 13.7473 4.10479 14.1534 4.08338 14.5577C6.70312 14.5571 9.30144 14.5571 11.9248 14.5571ZM5.98394 4.18066C5.98394 4.47523 5.98275 4.75807 5.98453 5.04091C5.98513 5.17705 5.92743 5.27681 5.8037 5.33431C5.68532 5.38889 5.57587 5.36893 5.47177 5.28913C5.40633 5.23866 5.33555 5.18937 5.26 5.15827C4.99232 5.04795 4.91498 5.10253 4.91439 5.39182C4.91439 5.44052 4.9132 5.48923 4.91498 5.53852C4.92034 5.70869 5.00778 5.79789 5.1791 5.80845C5.23323 5.81138 5.28796 5.80728 5.34209 5.81197C5.49318 5.82547 5.55862 5.89471 5.5723 6.04611C5.58182 6.1529 5.58776 6.26088 5.60561 6.3665C5.84058 7.75723 7.29619 8.49953 8.47876 8.24838C9.63932 8.00192 10.3347 7.21326 10.4352 6.03965C10.4477 5.89764 10.5221 5.82782 10.6577 5.81315C10.7261 5.80552 10.7963 5.81138 10.8653 5.80552C10.9908 5.79554 11.0705 5.72102 11.0872 5.60542C11.1033 5.4904 11.1033 5.37011 11.0878 5.25509C11.0735 5.15182 11.0182 5.0638 10.8843 5.11954C10.7767 5.16473 10.6613 5.2017 10.5679 5.26859C10.4495 5.35368 10.3353 5.39886 10.1991 5.33314C10.0629 5.26742 10.0206 5.15182 10.0236 5.00688C10.0289 4.7346 10.0248 4.46232 10.0248 4.18242C8.67506 4.18066 7.34021 4.18066 5.98394 4.18066ZM12.2359 3.16314C12.1758 3.16314 12.1169 3.16314 12.0586 3.16314C10.2871 3.16314 8.51564 3.16314 6.74416 3.16314C6.69479 3.16314 6.64363 3.16901 6.59604 3.15962C6.4741 3.13615 6.39974 3.06103 6.4039 2.93722C6.40807 2.81458 6.48302 2.74123 6.60853 2.72656C6.65731 2.72069 6.70728 2.72421 6.75665 2.72421C8.06295 2.72421 9.36925 2.72421 10.6762 2.72421C10.7344 2.72421 10.7927 2.72421 10.8564 2.72421C10.8564 2.6802 10.86 2.65145 10.8558 2.62328C10.8011 2.23247 10.763 1.83872 10.6857 1.45261C10.5447 0.751962 9.94329 0.344133 9.23006 0.467362C8.40262 0.610542 7.58053 0.611129 6.75427 0.462081C6.0928 0.342373 5.46403 0.766045 5.3296 1.41916C5.27666 1.67618 5.24929 1.93848 5.21182 2.19902C5.18743 2.36978 5.16601 2.54054 5.14162 2.72421C5.25465 2.72421 5.34328 2.72421 5.43191 2.72421C5.47653 2.72421 5.52114 2.72304 5.56575 2.7248C5.71328 2.73008 5.80846 2.81751 5.80667 2.94543C5.80548 3.07336 5.7109 3.16197 5.561 3.16197C5.0167 3.16431 4.47241 3.16255 3.92812 3.16314C3.87637 3.16314 3.82462 3.16314 3.77762 3.16314C3.77227 3.18661 3.76929 3.19189 3.77048 3.196C3.8609 3.5475 4.1268 3.73234 4.54974 3.73234C6.84588 3.73293 9.14202 3.73293 11.4382 3.73234C11.5125 3.73234 11.5869 3.72999 11.6606 3.72178C11.9444 3.6895 12.1847 3.45889 12.2359 3.16314ZM10.622 9.27294C10.622 10.0645 10.622 10.8344 10.622 11.616C10.8136 11.616 10.9974 11.616 11.1889 11.616C11.1889 11.5398 11.1889 11.4717 11.1889 11.4036C11.1889 11.3356 11.1853 11.2669 11.1907 11.1988C11.202 11.0574 11.3037 10.9582 11.4251 10.9647C11.5458 10.9712 11.6303 11.0633 11.6333 11.2035C11.6368 11.379 11.6416 11.555 11.6333 11.7305C11.6154 12.106 11.754 12.4159 11.986 12.7099C12.1276 12.8894 12.2484 13.1071 12.3031 13.3254C12.3679 13.5854 12.3542 13.8653 12.3685 14.137C12.3756 14.276 12.3697 14.4157 12.3697 14.5606C12.6642 14.5606 12.936 14.5618 13.2079 14.56C13.4387 14.5589 13.5529 14.448 13.5535 14.2168C13.5552 13.4258 13.5648 12.6353 13.5511 11.8443C13.5374 11.0351 13.1799 10.402 12.4821 9.96772C12.2299 9.81045 11.9557 9.70659 11.6333 9.6972C11.6333 9.8574 11.638 10.0076 11.6321 10.1578C11.6261 10.3092 11.5214 10.3949 11.3781 10.3714C11.2317 10.3474 11.1913 10.2412 11.1901 10.1138C11.1877 9.89906 11.1931 9.68429 11.1859 9.46952C11.1848 9.42903 11.1455 9.36272 11.1128 9.35568C10.9539 9.31989 10.7927 9.29993 10.622 9.27294ZM3.63783 14.56C3.63783 14.3488 3.64735 14.154 3.63605 13.9603C3.60511 13.4334 3.75383 12.9751 4.1155 12.5772C4.29812 12.3765 4.37486 12.1236 4.37367 11.849C4.37129 11.1853 4.37307 10.5222 4.37307 9.85857C4.37307 9.80693 4.37307 9.75529 4.37307 9.68957C4.27314 9.70424 4.1958 9.71363 4.11907 9.72713C4.07089 9.73534 4.02211 9.74649 3.97571 9.76234C3.31601 9.98825 2.84608 10.4201 2.60695 11.0656C2.51415 11.3168 2.46656 11.5961 2.46002 11.8637C2.44098 12.6435 2.45288 13.4246 2.45348 14.205C2.45348 14.4216 2.55698 14.5536 2.74258 14.5583C3.03405 14.5647 3.32553 14.56 3.63783 14.56ZM10.1646 9.98943C10.1015 10.081 10.0575 10.1338 10.0248 10.1925C9.73271 10.7182 9.19318 11.0539 8.44188 10.8098C8.14445 10.7135 7.85416 10.7135 7.5603 10.8121C7.50439 10.8309 7.4455 10.8409 7.38839 10.8556C7.06479 10.9377 6.75071 10.899 6.47945 10.7141C6.31349 10.6015 6.18381 10.4336 6.04699 10.2828C5.9762 10.2048 5.92683 10.1086 5.84593 9.98884C5.84593 10.5586 5.84593 11.0797 5.84593 11.609C7.28845 11.609 8.72443 11.609 10.1646 11.609C10.1646 11.0756 10.1646 10.5551 10.1646 9.98943ZM9.10395 8.52125C8.37347 8.81113 7.62812 8.80174 6.89525 8.52125C6.8667 8.6744 6.85718 8.81289 6.81198 8.93964C6.77509 9.04291 6.80246 9.09631 6.87681 9.16262C7.18138 9.43373 7.48119 9.71128 7.78278 9.98591C7.85416 10.051 7.92792 10.1144 8.00644 10.1837C8.40678 9.81926 8.79641 9.46659 9.18247 9.1104C9.20567 9.08927 9.22173 9.04115 9.21519 9.01064C9.18366 8.85044 9.14381 8.69201 9.10395 8.52125ZM5.3867 9.27177C5.23918 9.29641 5.10058 9.33045 4.96019 9.34042C4.84241 9.34923 4.81624 9.39852 4.81683 9.50649C4.82159 10.1708 4.81862 10.8344 4.81981 11.4987C4.81981 11.5404 4.82635 11.582 4.82873 11.6137C5.02325 11.6137 5.20349 11.6137 5.3867 11.6137C5.3867 10.8286 5.3867 10.0587 5.3867 9.27177ZM5.99583 9.40791C6.14812 9.63793 6.28969 9.85388 6.43365 10.0675C6.69062 10.4489 7.08263 10.5528 7.52818 10.3509C7.1677 10.0246 6.81257 9.70072 6.45447 9.38033C6.42889 9.35744 6.38249 9.34394 6.34858 9.34805C6.23735 9.36096 6.1267 9.38443 5.99583 9.40791ZM10.0147 9.40849C9.92901 9.39324 9.86774 9.39089 9.81361 9.37094C9.65776 9.31343 9.54533 9.36624 9.43469 9.47832C9.27943 9.635 9.1093 9.77759 8.94572 9.92664C8.79046 10.0681 8.6358 10.2095 8.47578 10.3562C8.91538 10.5228 9.26991 10.4642 9.49834 10.1678C9.67917 9.93251 9.83384 9.67666 10.0147 9.40849ZM5.18088 4.67005C5.30342 4.70937 5.41466 4.74458 5.52828 4.78096C5.52828 4.57675 5.52828 4.38017 5.52828 4.18418C5.40693 4.18418 5.29629 4.18418 5.18088 4.18418C5.18088 4.35142 5.18088 4.50692 5.18088 4.67005ZM10.4763 4.7833C10.5994 4.7434 10.7101 4.70702 10.8249 4.66946C10.8249 4.50868 10.8249 4.34907 10.8249 4.18066C10.7065 4.18066 10.5952 4.18066 10.4763 4.18066C10.4763 4.38134 10.4763 4.57499 10.4763 4.7833Z"/>
</mask>
<path d="M11.2781 4.16364C11.2781 4.36433 11.2728 4.53039 11.2817 4.69587C11.2841 4.74164 11.3204 4.79621 11.3573 4.82849C11.6059 5.0415 11.594 5.76679 11.3941 5.98273C11.2728 6.11418 11.1342 6.2022 10.9587 6.24269C10.9194 6.25149 10.8635 6.29667 10.8582 6.33188C10.7386 7.13345 10.3478 7.76603 9.6649 8.22021C9.65657 8.2255 9.64646 8.2296 9.64051 8.23665C9.5138 8.39332 9.59114 8.56878 9.59708 8.73602C9.60125 8.85279 9.67085 8.9144 9.79458 8.92614C9.91712 8.93729 10.0373 8.97074 10.1598 8.98365C10.2021 8.98834 10.258 8.97309 10.2895 8.94609C10.4156 8.83988 10.55 8.80291 10.7148 8.83988C10.8974 8.88037 11.0842 8.90502 11.2692 8.93494C11.4102 8.95783 11.5095 9.03529 11.5887 9.15147C11.6196 9.19724 11.6797 9.24947 11.7296 9.25299C12.8206 9.3281 13.9984 10.4043 13.999 11.8496C13.999 12.6453 14.0014 13.4416 13.9984 14.2373C13.9966 14.6915 13.6796 14.9996 13.2215 14.9996C9.74163 15.0001 6.26114 15.0001 2.78124 14.9996C2.33094 14.9996 2.0109 14.6921 2.00852 14.2485C2.00436 13.4428 1.99008 12.6365 2.0115 11.8314C2.04184 10.6995 2.60754 9.89554 3.63783 9.41495C3.82521 9.32751 4.04769 9.31402 4.25053 9.25651C4.31299 9.23891 4.3814 9.19783 4.41828 9.14737C4.50156 9.0347 4.59912 8.95783 4.74069 8.93494C4.9358 8.90326 5.13032 8.87215 5.32424 8.83401C5.46701 8.80585 5.58301 8.85162 5.69841 8.92849C5.74778 8.96135 5.81976 8.97954 5.87865 8.97484C6.00595 8.96428 6.13444 8.94433 6.25698 8.90854C6.31111 8.89269 6.38368 8.83577 6.39141 8.78883C6.41699 8.63626 6.42056 8.47958 6.42175 8.32408C6.42175 8.29181 6.3813 8.24956 6.34799 8.22784C5.66093 7.77014 5.26357 7.13639 5.14698 6.32777C5.14222 6.2955 5.09285 6.25207 5.05715 6.24386C4.68061 6.1576 4.47539 5.90469 4.46587 5.52737C4.45873 5.24747 4.47063 4.97871 4.70322 4.77392C4.71868 4.75983 4.72641 4.72991 4.72641 4.70761C4.7282 4.53743 4.7276 4.36726 4.7276 4.18242C4.59495 4.17596 4.47301 4.17244 4.35106 4.16423C3.77941 4.12667 3.30828 3.63199 3.3059 3.06632C3.30471 2.85155 3.42428 2.72714 3.64081 2.72538C3.94775 2.72304 4.2547 2.72069 4.56164 2.72656C4.66455 2.7289 4.69548 2.69252 4.70738 2.5957C4.75616 2.2043 4.7978 1.81056 4.87037 1.42268C5.05477 0.439782 5.88638 -0.13822 6.89288 0.0366478C7.66857 0.171026 8.43474 0.159877 9.20686 0.0237381C10.0789 -0.130005 10.9658 0.480858 11.1205 1.34053C11.1943 1.74777 11.2478 2.15912 11.296 2.57047C11.3109 2.69839 11.3537 2.73125 11.4786 2.72714C11.7701 2.71775 12.0628 2.72304 12.3548 2.7248C12.5833 2.72656 12.7022 2.84685 12.7004 3.06984C12.6963 3.63493 12.2252 4.12784 11.6511 4.16305C11.5339 4.17009 11.4156 4.16364 11.2781 4.16364ZM11.9248 14.5571C11.9248 14.5102 11.9248 14.4644 11.9248 14.418C11.9248 14.1986 11.9242 13.9785 11.9248 13.7591C11.9259 13.4539 11.8123 13.1969 11.6291 12.9516C11.4822 12.755 11.3638 12.5321 11.268 12.3061C11.1729 12.082 11.1752 12.062 10.9183 12.062C9.62147 12.062 8.32469 12.062 7.02731 12.062C6.36405 12.062 5.70079 12.0638 5.03752 12.0608C4.88703 12.0603 4.7978 12.1148 4.76211 12.2656C4.69905 12.5321 4.55331 12.7556 4.38021 12.9675C4.28563 13.0831 4.19759 13.2157 4.15119 13.3547C4.01973 13.7473 4.10479 14.1534 4.08338 14.5577C6.70312 14.5571 9.30144 14.5571 11.9248 14.5571ZM5.98394 4.18066C5.98394 4.47523 5.98275 4.75807 5.98453 5.04091C5.98513 5.17705 5.92743 5.27681 5.8037 5.33431C5.68532 5.38889 5.57587 5.36893 5.47177 5.28913C5.40633 5.23866 5.33555 5.18937 5.26 5.15827C4.99232 5.04795 4.91498 5.10253 4.91439 5.39182C4.91439 5.44052 4.9132 5.48923 4.91498 5.53852C4.92034 5.70869 5.00778 5.79789 5.1791 5.80845C5.23323 5.81138 5.28796 5.80728 5.34209 5.81197C5.49318 5.82547 5.55862 5.89471 5.5723 6.04611C5.58182 6.1529 5.58776 6.26088 5.60561 6.3665C5.84058 7.75723 7.29619 8.49953 8.47876 8.24838C9.63932 8.00192 10.3347 7.21326 10.4352 6.03965C10.4477 5.89764 10.5221 5.82782 10.6577 5.81315C10.7261 5.80552 10.7963 5.81138 10.8653 5.80552C10.9908 5.79554 11.0705 5.72102 11.0872 5.60542C11.1033 5.4904 11.1033 5.37011 11.0878 5.25509C11.0735 5.15182 11.0182 5.0638 10.8843 5.11954C10.7767 5.16473 10.6613 5.2017 10.5679 5.26859C10.4495 5.35368 10.3353 5.39886 10.1991 5.33314C10.0629 5.26742 10.0206 5.15182 10.0236 5.00688C10.0289 4.7346 10.0248 4.46232 10.0248 4.18242C8.67506 4.18066 7.34021 4.18066 5.98394 4.18066ZM12.2359 3.16314C12.1758 3.16314 12.1169 3.16314 12.0586 3.16314C10.2871 3.16314 8.51564 3.16314 6.74416 3.16314C6.69479 3.16314 6.64363 3.16901 6.59604 3.15962C6.4741 3.13615 6.39974 3.06103 6.4039 2.93722C6.40807 2.81458 6.48302 2.74123 6.60853 2.72656C6.65731 2.72069 6.70728 2.72421 6.75665 2.72421C8.06295 2.72421 9.36925 2.72421 10.6762 2.72421C10.7344 2.72421 10.7927 2.72421 10.8564 2.72421C10.8564 2.6802 10.86 2.65145 10.8558 2.62328C10.8011 2.23247 10.763 1.83872 10.6857 1.45261C10.5447 0.751962 9.94329 0.344133 9.23006 0.467362C8.40262 0.610542 7.58053 0.611129 6.75427 0.462081C6.0928 0.342373 5.46403 0.766045 5.3296 1.41916C5.27666 1.67618 5.24929 1.93848 5.21182 2.19902C5.18743 2.36978 5.16601 2.54054 5.14162 2.72421C5.25465 2.72421 5.34328 2.72421 5.43191 2.72421C5.47653 2.72421 5.52114 2.72304 5.56575 2.7248C5.71328 2.73008 5.80846 2.81751 5.80667 2.94543C5.80548 3.07336 5.7109 3.16197 5.561 3.16197C5.0167 3.16431 4.47241 3.16255 3.92812 3.16314C3.87637 3.16314 3.82462 3.16314 3.77762 3.16314C3.77227 3.18661 3.76929 3.19189 3.77048 3.196C3.8609 3.5475 4.1268 3.73234 4.54974 3.73234C6.84588 3.73293 9.14202 3.73293 11.4382 3.73234C11.5125 3.73234 11.5869 3.72999 11.6606 3.72178C11.9444 3.6895 12.1847 3.45889 12.2359 3.16314ZM10.622 9.27294C10.622 10.0645 10.622 10.8344 10.622 11.616C10.8136 11.616 10.9974 11.616 11.1889 11.616C11.1889 11.5398 11.1889 11.4717 11.1889 11.4036C11.1889 11.3356 11.1853 11.2669 11.1907 11.1988C11.202 11.0574 11.3037 10.9582 11.4251 10.9647C11.5458 10.9712 11.6303 11.0633 11.6333 11.2035C11.6368 11.379 11.6416 11.555 11.6333 11.7305C11.6154 12.106 11.754 12.4159 11.986 12.7099C12.1276 12.8894 12.2484 13.1071 12.3031 13.3254C12.3679 13.5854 12.3542 13.8653 12.3685 14.137C12.3756 14.276 12.3697 14.4157 12.3697 14.5606C12.6642 14.5606 12.936 14.5618 13.2079 14.56C13.4387 14.5589 13.5529 14.448 13.5535 14.2168C13.5552 13.4258 13.5648 12.6353 13.5511 11.8443C13.5374 11.0351 13.1799 10.402 12.4821 9.96772C12.2299 9.81045 11.9557 9.70659 11.6333 9.6972C11.6333 9.8574 11.638 10.0076 11.6321 10.1578C11.6261 10.3092 11.5214 10.3949 11.3781 10.3714C11.2317 10.3474 11.1913 10.2412 11.1901 10.1138C11.1877 9.89906 11.1931 9.68429 11.1859 9.46952C11.1848 9.42903 11.1455 9.36272 11.1128 9.35568C10.9539 9.31989 10.7927 9.29993 10.622 9.27294ZM3.63783 14.56C3.63783 14.3488 3.64735 14.154 3.63605 13.9603C3.60511 13.4334 3.75383 12.9751 4.1155 12.5772C4.29812 12.3765 4.37486 12.1236 4.37367 11.849C4.37129 11.1853 4.37307 10.5222 4.37307 9.85857C4.37307 9.80693 4.37307 9.75529 4.37307 9.68957C4.27314 9.70424 4.1958 9.71363 4.11907 9.72713C4.07089 9.73534 4.02211 9.74649 3.97571 9.76234C3.31601 9.98825 2.84608 10.4201 2.60695 11.0656C2.51415 11.3168 2.46656 11.5961 2.46002 11.8637C2.44098 12.6435 2.45288 13.4246 2.45348 14.205C2.45348 14.4216 2.55698 14.5536 2.74258 14.5583C3.03405 14.5647 3.32553 14.56 3.63783 14.56ZM10.1646 9.98943C10.1015 10.081 10.0575 10.1338 10.0248 10.1925C9.73271 10.7182 9.19318 11.0539 8.44188 10.8098C8.14445 10.7135 7.85416 10.7135 7.5603 10.8121C7.50439 10.8309 7.4455 10.8409 7.38839 10.8556C7.06479 10.9377 6.75071 10.899 6.47945 10.7141C6.31349 10.6015 6.18381 10.4336 6.04699 10.2828C5.9762 10.2048 5.92683 10.1086 5.84593 9.98884C5.84593 10.5586 5.84593 11.0797 5.84593 11.609C7.28845 11.609 8.72443 11.609 10.1646 11.609C10.1646 11.0756 10.1646 10.5551 10.1646 9.98943ZM9.10395 8.52125C8.37347 8.81113 7.62812 8.80174 6.89525 8.52125C6.8667 8.6744 6.85718 8.81289 6.81198 8.93964C6.77509 9.04291 6.80246 9.09631 6.87681 9.16262C7.18138 9.43373 7.48119 9.71128 7.78278 9.98591C7.85416 10.051 7.92792 10.1144 8.00644 10.1837C8.40678 9.81926 8.79641 9.46659 9.18247 9.1104C9.20567 9.08927 9.22173 9.04115 9.21519 9.01064C9.18366 8.85044 9.14381 8.69201 9.10395 8.52125ZM5.3867 9.27177C5.23918 9.29641 5.10058 9.33045 4.96019 9.34042C4.84241 9.34923 4.81624 9.39852 4.81683 9.50649C4.82159 10.1708 4.81862 10.8344 4.81981 11.4987C4.81981 11.5404 4.82635 11.582 4.82873 11.6137C5.02325 11.6137 5.20349 11.6137 5.3867 11.6137C5.3867 10.8286 5.3867 10.0587 5.3867 9.27177ZM5.99583 9.40791C6.14812 9.63793 6.28969 9.85388 6.43365 10.0675C6.69062 10.4489 7.08263 10.5528 7.52818 10.3509C7.1677 10.0246 6.81257 9.70072 6.45447 9.38033C6.42889 9.35744 6.38249 9.34394 6.34858 9.34805C6.23735 9.36096 6.1267 9.38443 5.99583 9.40791ZM10.0147 9.40849C9.92901 9.39324 9.86774 9.39089 9.81361 9.37094C9.65776 9.31343 9.54533 9.36624 9.43469 9.47832C9.27943 9.635 9.1093 9.77759 8.94572 9.92664C8.79046 10.0681 8.6358 10.2095 8.47578 10.3562C8.91538 10.5228 9.26991 10.4642 9.49834 10.1678C9.67917 9.93251 9.83384 9.67666 10.0147 9.40849ZM5.18088 4.67005C5.30342 4.70937 5.41466 4.74458 5.52828 4.78096C5.52828 4.57675 5.52828 4.38017 5.52828 4.18418C5.40693 4.18418 5.29629 4.18418 5.18088 4.18418C5.18088 4.35142 5.18088 4.50692 5.18088 4.67005ZM10.4763 4.7833C10.5994 4.7434 10.7101 4.70702 10.8249 4.66946C10.8249 4.50868 10.8249 4.34907 10.8249 4.18066C10.7065 4.18066 10.5952 4.18066 10.4763 4.18066C10.4763 4.38134 10.4763 4.57499 10.4763 4.7833Z" fill="#463839"/>
<path d="M11.2781 4.16364C11.2781 4.36433 11.2728 4.53039 11.2817 4.69587C11.2841 4.74164 11.3204 4.79621 11.3573 4.82849C11.6059 5.0415 11.594 5.76679 11.3941 5.98273C11.2728 6.11418 11.1342 6.2022 10.9587 6.24269C10.9194 6.25149 10.8635 6.29667 10.8582 6.33188C10.7386 7.13345 10.3478 7.76603 9.6649 8.22021C9.65657 8.2255 9.64646 8.2296 9.64051 8.23665C9.5138 8.39332 9.59114 8.56878 9.59708 8.73602C9.60125 8.85279 9.67085 8.9144 9.79458 8.92614C9.91712 8.93729 10.0373 8.97074 10.1598 8.98365C10.2021 8.98834 10.258 8.97309 10.2895 8.94609C10.4156 8.83988 10.55 8.80291 10.7148 8.83988C10.8974 8.88037 11.0842 8.90502 11.2692 8.93494C11.4102 8.95783 11.5095 9.03529 11.5887 9.15147C11.6196 9.19724 11.6797 9.24947 11.7296 9.25299C12.8206 9.3281 13.9984 10.4043 13.999 11.8496C13.999 12.6453 14.0014 13.4416 13.9984 14.2373C13.9966 14.6915 13.6796 14.9996 13.2215 14.9996C9.74163 15.0001 6.26114 15.0001 2.78124 14.9996C2.33094 14.9996 2.0109 14.6921 2.00852 14.2485C2.00436 13.4428 1.99008 12.6365 2.0115 11.8314C2.04184 10.6995 2.60754 9.89554 3.63783 9.41495C3.82521 9.32751 4.04769 9.31402 4.25053 9.25651C4.31299 9.23891 4.3814 9.19783 4.41828 9.14737C4.50156 9.0347 4.59912 8.95783 4.74069 8.93494C4.9358 8.90326 5.13032 8.87215 5.32424 8.83401C5.46701 8.80585 5.58301 8.85162 5.69841 8.92849C5.74778 8.96135 5.81976 8.97954 5.87865 8.97484C6.00595 8.96428 6.13444 8.94433 6.25698 8.90854C6.31111 8.89269 6.38368 8.83577 6.39141 8.78883C6.41699 8.63626 6.42056 8.47958 6.42175 8.32408C6.42175 8.29181 6.3813 8.24956 6.34799 8.22784C5.66093 7.77014 5.26357 7.13639 5.14698 6.32777C5.14222 6.2955 5.09285 6.25207 5.05715 6.24386C4.68061 6.1576 4.47539 5.90469 4.46587 5.52737C4.45873 5.24747 4.47063 4.97871 4.70322 4.77392C4.71868 4.75983 4.72641 4.72991 4.72641 4.70761C4.7282 4.53743 4.7276 4.36726 4.7276 4.18242C4.59495 4.17596 4.47301 4.17244 4.35106 4.16423C3.77941 4.12667 3.30828 3.63199 3.3059 3.06632C3.30471 2.85155 3.42428 2.72714 3.64081 2.72538C3.94775 2.72304 4.2547 2.72069 4.56164 2.72656C4.66455 2.7289 4.69548 2.69252 4.70738 2.5957C4.75616 2.2043 4.7978 1.81056 4.87037 1.42268C5.05477 0.439782 5.88638 -0.13822 6.89288 0.0366478C7.66857 0.171026 8.43474 0.159877 9.20686 0.0237381C10.0789 -0.130005 10.9658 0.480858 11.1205 1.34053C11.1943 1.74777 11.2478 2.15912 11.296 2.57047C11.3109 2.69839 11.3537 2.73125 11.4786 2.72714C11.7701 2.71775 12.0628 2.72304 12.3548 2.7248C12.5833 2.72656 12.7022 2.84685 12.7004 3.06984C12.6963 3.63493 12.2252 4.12784 11.6511 4.16305C11.5339 4.17009 11.4156 4.16364 11.2781 4.16364ZM11.9248 14.5571C11.9248 14.5102 11.9248 14.4644 11.9248 14.418C11.9248 14.1986 11.9242 13.9785 11.9248 13.7591C11.9259 13.4539 11.8123 13.1969 11.6291 12.9516C11.4822 12.755 11.3638 12.5321 11.268 12.3061C11.1729 12.082 11.1752 12.062 10.9183 12.062C9.62147 12.062 8.32469 12.062 7.02731 12.062C6.36405 12.062 5.70079 12.0638 5.03752 12.0608C4.88703 12.0603 4.7978 12.1148 4.76211 12.2656C4.69905 12.5321 4.55331 12.7556 4.38021 12.9675C4.28563 13.0831 4.19759 13.2157 4.15119 13.3547C4.01973 13.7473 4.10479 14.1534 4.08338 14.5577C6.70312 14.5571 9.30144 14.5571 11.9248 14.5571ZM5.98394 4.18066C5.98394 4.47523 5.98275 4.75807 5.98453 5.04091C5.98513 5.17705 5.92743 5.27681 5.8037 5.33431C5.68532 5.38889 5.57587 5.36893 5.47177 5.28913C5.40633 5.23866 5.33555 5.18937 5.26 5.15827C4.99232 5.04795 4.91498 5.10253 4.91439 5.39182C4.91439 5.44052 4.9132 5.48923 4.91498 5.53852C4.92034 5.70869 5.00778 5.79789 5.1791 5.80845C5.23323 5.81138 5.28796 5.80728 5.34209 5.81197C5.49318 5.82547 5.55862 5.89471 5.5723 6.04611C5.58182 6.1529 5.58776 6.26088 5.60561 6.3665C5.84058 7.75723 7.29619 8.49953 8.47876 8.24838C9.63932 8.00192 10.3347 7.21326 10.4352 6.03965C10.4477 5.89764 10.5221 5.82782 10.6577 5.81315C10.7261 5.80552 10.7963 5.81138 10.8653 5.80552C10.9908 5.79554 11.0705 5.72102 11.0872 5.60542C11.1033 5.4904 11.1033 5.37011 11.0878 5.25509C11.0735 5.15182 11.0182 5.0638 10.8843 5.11954C10.7767 5.16473 10.6613 5.2017 10.5679 5.26859C10.4495 5.35368 10.3353 5.39886 10.1991 5.33314C10.0629 5.26742 10.0206 5.15182 10.0236 5.00688C10.0289 4.7346 10.0248 4.46232 10.0248 4.18242C8.67506 4.18066 7.34021 4.18066 5.98394 4.18066ZM12.2359 3.16314C12.1758 3.16314 12.1169 3.16314 12.0586 3.16314C10.2871 3.16314 8.51564 3.16314 6.74416 3.16314C6.69479 3.16314 6.64363 3.16901 6.59604 3.15962C6.4741 3.13615 6.39974 3.06103 6.4039 2.93722C6.40807 2.81458 6.48302 2.74123 6.60853 2.72656C6.65731 2.72069 6.70728 2.72421 6.75665 2.72421C8.06295 2.72421 9.36925 2.72421 10.6762 2.72421C10.7344 2.72421 10.7927 2.72421 10.8564 2.72421C10.8564 2.6802 10.86 2.65145 10.8558 2.62328C10.8011 2.23247 10.763 1.83872 10.6857 1.45261C10.5447 0.751962 9.94329 0.344133 9.23006 0.467362C8.40262 0.610542 7.58053 0.611129 6.75427 0.462081C6.0928 0.342373 5.46403 0.766045 5.3296 1.41916C5.27666 1.67618 5.24929 1.93848 5.21182 2.19902C5.18743 2.36978 5.16601 2.54054 5.14162 2.72421C5.25465 2.72421 5.34328 2.72421 5.43191 2.72421C5.47653 2.72421 5.52114 2.72304 5.56575 2.7248C5.71328 2.73008 5.80846 2.81751 5.80667 2.94543C5.80548 3.07336 5.7109 3.16197 5.561 3.16197C5.0167 3.16431 4.47241 3.16255 3.92812 3.16314C3.87637 3.16314 3.82462 3.16314 3.77762 3.16314C3.77227 3.18661 3.76929 3.19189 3.77048 3.196C3.8609 3.5475 4.1268 3.73234 4.54974 3.73234C6.84588 3.73293 9.14202 3.73293 11.4382 3.73234C11.5125 3.73234 11.5869 3.72999 11.6606 3.72178C11.9444 3.6895 12.1847 3.45889 12.2359 3.16314ZM10.622 9.27294C10.622 10.0645 10.622 10.8344 10.622 11.616C10.8136 11.616 10.9974 11.616 11.1889 11.616C11.1889 11.5398 11.1889 11.4717 11.1889 11.4036C11.1889 11.3356 11.1853 11.2669 11.1907 11.1988C11.202 11.0574 11.3037 10.9582 11.4251 10.9647C11.5458 10.9712 11.6303 11.0633 11.6333 11.2035C11.6368 11.379 11.6416 11.555 11.6333 11.7305C11.6154 12.106 11.754 12.4159 11.986 12.7099C12.1276 12.8894 12.2484 13.1071 12.3031 13.3254C12.3679 13.5854 12.3542 13.8653 12.3685 14.137C12.3756 14.276 12.3697 14.4157 12.3697 14.5606C12.6642 14.5606 12.936 14.5618 13.2079 14.56C13.4387 14.5589 13.5529 14.448 13.5535 14.2168C13.5552 13.4258 13.5648 12.6353 13.5511 11.8443C13.5374 11.0351 13.1799 10.402 12.4821 9.96772C12.2299 9.81045 11.9557 9.70659 11.6333 9.6972C11.6333 9.8574 11.638 10.0076 11.6321 10.1578C11.6261 10.3092 11.5214 10.3949 11.3781 10.3714C11.2317 10.3474 11.1913 10.2412 11.1901 10.1138C11.1877 9.89906 11.1931 9.68429 11.1859 9.46952C11.1848 9.42903 11.1455 9.36272 11.1128 9.35568C10.9539 9.31989 10.7927 9.29993 10.622 9.27294ZM3.63783 14.56C3.63783 14.3488 3.64735 14.154 3.63605 13.9603C3.60511 13.4334 3.75383 12.9751 4.1155 12.5772C4.29812 12.3765 4.37486 12.1236 4.37367 11.849C4.37129 11.1853 4.37307 10.5222 4.37307 9.85857C4.37307 9.80693 4.37307 9.75529 4.37307 9.68957C4.27314 9.70424 4.1958 9.71363 4.11907 9.72713C4.07089 9.73534 4.02211 9.74649 3.97571 9.76234C3.31601 9.98825 2.84608 10.4201 2.60695 11.0656C2.51415 11.3168 2.46656 11.5961 2.46002 11.8637C2.44098 12.6435 2.45288 13.4246 2.45348 14.205C2.45348 14.4216 2.55698 14.5536 2.74258 14.5583C3.03405 14.5647 3.32553 14.56 3.63783 14.56ZM10.1646 9.98943C10.1015 10.081 10.0575 10.1338 10.0248 10.1925C9.73271 10.7182 9.19318 11.0539 8.44188 10.8098C8.14445 10.7135 7.85416 10.7135 7.5603 10.8121C7.50439 10.8309 7.4455 10.8409 7.38839 10.8556C7.06479 10.9377 6.75071 10.899 6.47945 10.7141C6.31349 10.6015 6.18381 10.4336 6.04699 10.2828C5.9762 10.2048 5.92683 10.1086 5.84593 9.98884C5.84593 10.5586 5.84593 11.0797 5.84593 11.609C7.28845 11.609 8.72443 11.609 10.1646 11.609C10.1646 11.0756 10.1646 10.5551 10.1646 9.98943ZM9.10395 8.52125C8.37347 8.81113 7.62812 8.80174 6.89525 8.52125C6.8667 8.6744 6.85718 8.81289 6.81198 8.93964C6.77509 9.04291 6.80246 9.09631 6.87681 9.16262C7.18138 9.43373 7.48119 9.71128 7.78278 9.98591C7.85416 10.051 7.92792 10.1144 8.00644 10.1837C8.40678 9.81926 8.79641 9.46659 9.18247 9.1104C9.20567 9.08927 9.22173 9.04115 9.21519 9.01064C9.18366 8.85044 9.14381 8.69201 9.10395 8.52125ZM5.3867 9.27177C5.23918 9.29641 5.10058 9.33045 4.96019 9.34042C4.84241 9.34923 4.81624 9.39852 4.81683 9.50649C4.82159 10.1708 4.81862 10.8344 4.81981 11.4987C4.81981 11.5404 4.82635 11.582 4.82873 11.6137C5.02325 11.6137 5.20349 11.6137 5.3867 11.6137C5.3867 10.8286 5.3867 10.0587 5.3867 9.27177ZM5.99583 9.40791C6.14812 9.63793 6.28969 9.85388 6.43365 10.0675C6.69062 10.4489 7.08263 10.5528 7.52818 10.3509C7.1677 10.0246 6.81257 9.70072 6.45447 9.38033C6.42889 9.35744 6.38249 9.34394 6.34858 9.34805C6.23735 9.36096 6.1267 9.38443 5.99583 9.40791ZM10.0147 9.40849C9.92901 9.39324 9.86774 9.39089 9.81361 9.37094C9.65776 9.31343 9.54533 9.36624 9.43469 9.47832C9.27943 9.635 9.1093 9.77759 8.94572 9.92664C8.79046 10.0681 8.6358 10.2095 8.47578 10.3562C8.91538 10.5228 9.26991 10.4642 9.49834 10.1678C9.67917 9.93251 9.83384 9.67666 10.0147 9.40849ZM5.18088 4.67005C5.30342 4.70937 5.41466 4.74458 5.52828 4.78096C5.52828 4.57675 5.52828 4.38017 5.52828 4.18418C5.40693 4.18418 5.29629 4.18418 5.18088 4.18418C5.18088 4.35142 5.18088 4.50692 5.18088 4.67005ZM10.4763 4.7833C10.5994 4.7434 10.7101 4.70702 10.8249 4.66946C10.8249 4.50868 10.8249 4.34907 10.8249 4.18066C10.7065 4.18066 10.5952 4.18066 10.4763 4.18066C10.4763 4.38134 10.4763 4.57499 10.4763 4.7833Z" stroke="black" stroke-width="0.2" mask="url(#path-1-outside-1_5527_79326)"/>
<path d="M5.6244 12.9381L5.62437 12.9381C5.47572 12.941 5.34415 12.8178 5.3426 12.6693M5.6244 12.9381L5.62007 12.3992C5.4693 12.3985 5.34044 12.5202 5.3426 12.6693M5.6244 12.9381C5.76901 12.9353 5.88581 12.8186 5.88873 12.6738L5.83874 12.6728L5.88873 12.674M5.6244 12.9381L5.88873 12.674M5.3426 12.6693C5.34261 12.6694 5.34261 12.6694 5.34261 12.6694L5.3926 12.6687L5.3426 12.6692C5.3426 12.6692 5.3426 12.6693 5.3426 12.6693ZM5.88873 12.674C5.89237 12.5189 5.77496 12.3999 5.62007 12.3992L5.88873 12.674Z" fill="#463839" stroke="black" stroke-width="0.1"/>
<path d="M10.3892 12.3992C10.2411 12.3979 10.1241 12.5064 10.1182 12.6538L10.1682 12.6558L10.1182 12.6537C10.1117 12.8063 10.2267 12.9331 10.3789 12.9381L10.3789 12.9381C10.5278 12.9431 10.6606 12.8212 10.6643 12.6729C10.668 12.5233 10.5407 12.4 10.3892 12.3992ZM10.3892 12.3992C10.3892 12.3992 10.3892 12.3992 10.3891 12.3992L10.3889 12.4492L10.3894 12.3992C10.3893 12.3992 10.3893 12.3992 10.3892 12.3992Z" fill="#463839" stroke="black" stroke-width="0.1"/>
</g>
<defs>
<clipPath id="clip0_5527_79326">
<rect width="12" height="15" fill="white" transform="translate(2)"/>
</clipPath>
</defs>
</svg>
