<svg width="16" height="16" viewBox="0 0 16 16" fill="none" xmlns="http://www.w3.org/2000/svg">
<g clip-path="url(#clip0_5527_71799)">
<path d="M15.9957 6.63334C15.7988 7.15339 15.6241 7.27214 15.0559 7.27214C13.2296 7.27214 11.4033 7.27214 9.57697 7.27214C8.99994 7.27214 8.71739 6.99164 8.71705 6.4187C8.71671 4.56339 8.71671 2.70841 8.71705 0.853097C8.71705 0.279816 8.99926 0.000341239 9.57732 0.000341239C11.404 0 13.2303 0 15.0566 0C15.6247 0 15.8001 0.119092 15.9957 0.638799C15.9957 2.63709 15.9957 4.63504 15.9957 6.63334ZM14.5239 1.46835C13.0675 1.46835 11.6247 1.46835 10.1864 1.46835C10.1864 2.92373 10.1864 4.36683 10.1864 5.80686C11.6387 5.80686 13.0777 5.80686 14.5239 5.80686C14.5239 4.35864 14.5239 2.91964 14.5239 1.46835Z" fill="#463839"/>
<path d="M0.638799 16.0003C0.119092 15.8041 0 15.6287 0 15.0605C0 13.2339 0 11.4069 0 9.58024C0 9.00287 0.280498 8.71998 0.852755 8.71998C2.70739 8.71964 4.56202 8.71964 6.41699 8.71998C6.99027 8.71998 7.27009 9.00185 7.27009 9.5799C7.27043 11.4066 7.27009 13.2335 7.27009 15.0602C7.27009 15.6287 7.15168 15.8024 6.63163 16.0003C4.63402 16.0003 2.63641 16.0003 0.638799 16.0003ZM1.46357 14.5238C2.91998 14.5238 4.36274 14.5238 5.80106 14.5238C5.80106 13.0684 5.80106 11.6253 5.80106 10.1849C4.34875 10.1849 2.91008 10.1849 1.46357 10.1849C1.46357 11.6331 1.46357 13.0725 1.46357 14.5238Z" fill="#463839"/>
<path d="M12.1488 15.9995C11.7966 15.92 11.4332 15.8729 11.0947 15.7552C9.58678 15.2297 8.59446 13.6682 8.73608 12.0791C8.89134 10.3357 10.1379 9.01371 11.8731 8.75232C13.753 8.46909 15.6059 9.82381 15.927 11.7156C15.9516 11.8603 15.9737 12.0057 15.9966 12.1504C15.9966 12.2865 15.9966 12.423 15.9966 12.5592C15.9867 12.5971 15.9717 12.6343 15.9683 12.6725C15.8284 14.1524 14.8514 15.3758 13.4349 15.8187C13.1514 15.9074 12.8504 15.9405 12.5573 15.9995C12.4211 15.9995 12.285 15.9995 12.1488 15.9995ZM12.36 14.5343C13.5561 14.5339 14.5303 13.5553 14.532 12.3517C14.5337 11.1557 13.5506 10.1729 12.3546 10.1753C11.1514 10.1777 10.1744 11.1516 10.1741 12.3493C10.1737 13.559 11.1497 14.5346 12.36 14.5343Z" fill="#463839"/>
<path d="M8.53097e-05 3.62831C8.53097e-05 2.69775 -0.000255929 1.76719 0.000426548 0.836632C0.000767787 0.285532 0.288432 0.000255929 0.843286 0.000255929C2.70406 -8.53097e-05 4.56449 -8.53097e-05 6.42527 0.000255929C6.98695 0.000255929 7.26983 0.285531 7.27018 0.851646C7.27052 2.7073 7.27052 4.56262 7.27018 6.41827C7.27018 6.99121 6.98695 7.27205 6.41025 7.27205C4.56074 7.27239 2.71157 7.27239 0.862054 7.27205C0.278877 7.27205 0.000426548 6.99121 0.000426548 6.40326C8.53097e-05 5.47816 8.53097e-05 4.55306 8.53097e-05 3.62831ZM1.46809 1.46349C1.46809 2.92092 1.46809 4.36402 1.46809 5.802C2.92314 5.802 4.36623 5.802 5.80524 5.802C5.80524 4.349 5.80524 2.91 5.80524 1.46349C4.35736 1.46349 2.91836 1.46349 1.46809 1.46349Z" fill="#463839"/>
</g>
<defs>
<clipPath id="clip0_5527_71799">
<rect width="15.9959" height="16" fill="white"/>
</clipPath>
</defs>
</svg>
