<svg width="16" height="16" viewBox="0 0 16 16" fill="none" xmlns="http://www.w3.org/2000/svg">
<g clip-path="url(#clip0_5527_79304)">
<g clip-path="url(#clip1_5527_79304)">
<path d="M6.78969 11.2618C5.006 11.2587 3.56125 9.81331 3.5625 8.03338C3.56438 6.24718 5.01853 4.80368 6.81037 4.81057C8.59469 4.81746 10.0369 6.2666 10.03 8.04653C10.0238 9.82772 8.57527 11.265 6.78969 11.2618ZM6.79596 9.10785C7.39052 9.10785 7.87043 8.63421 7.87419 8.04403C7.87795 7.4457 7.39741 6.96454 6.79596 6.96454C6.20139 6.96454 5.72148 7.43819 5.71772 8.02836C5.71521 8.62544 6.19575 9.10785 6.79596 9.10785Z" fill="#463839"/>
<path d="M15.9992 4.28027C15.9992 4.99513 15.9992 5.69683 15.9992 6.41294C15.5575 6.41294 15.1221 6.41294 14.6703 6.41294C14.6703 8.21104 14.6703 9.99474 14.6703 11.7916C13.9436 11.7916 13.2337 11.7916 12.5076 11.7916C12.5076 10.0054 12.5076 8.22169 12.5076 6.42359C12.0559 6.42359 11.6205 6.42359 11.1719 6.42359C11.1719 5.70372 11.1719 4.99826 11.1719 4.28027C12.7745 4.28027 14.3809 4.28027 15.9992 4.28027Z" fill="#463839"/>
<path d="M0 4.27734C0.715483 4.27734 1.42658 4.27734 2.14394 4.27734C2.14394 6.78592 2.14394 9.2851 2.14394 11.7943C1.42783 11.7943 0.716736 11.7943 0 11.7943C0 9.28635 0 6.78655 0 4.27734Z" fill="#463839"/>
<path d="M10.9353 2.33997C10.7454 2.60123 10.5688 2.84432 10.3965 3.08177C7.9969 1.54429 5.60674 1.54304 3.19903 3.08177C3.02988 2.84933 2.85257 2.60687 2.66211 2.34498C3.61755 1.6483 4.6726 1.21788 5.83479 1.06626C7.68991 0.823172 9.38401 1.2492 10.9353 2.33997Z" fill="#463839"/>
<path d="M2.66797 13.7185C2.85091 13.4673 3.02822 13.2242 3.19926 12.9893C5.59819 14.5236 7.98334 14.5274 10.3942 12.9911C10.4737 13.0983 10.5658 13.2217 10.6567 13.3457C10.745 13.4673 10.8321 13.5895 10.9198 13.711C8.79907 15.3988 5.20474 15.6357 2.66797 13.7185Z" fill="#463839"/>
<path d="M9.28804 4.60526C7.62025 3.54394 5.97251 3.54394 4.3066 4.60588C4.13243 4.36718 3.95262 4.12096 3.77344 3.87474C5.49636 2.52647 8.17096 2.5672 9.82058 3.87599C9.64077 4.12221 9.46096 4.36843 9.28804 4.60526Z" fill="#463839"/>
<path d="M9.28867 11.4664C9.4666 11.7108 9.64328 11.9539 9.81996 12.1963C8.17347 13.502 5.5045 13.5484 3.77344 12.1982C3.95012 11.9551 4.12679 11.712 4.30598 11.4658C5.96374 12.5284 7.61649 12.5309 9.28867 11.4664Z" fill="#463839"/>
</g>
</g>
<defs>
<clipPath id="clip0_5527_79304">
<rect width="15.4831" height="16" fill="white"/>
</clipPath>
<clipPath id="clip1_5527_79304">
<rect width="16" height="14.0684" fill="white" transform="translate(0 1)"/>
</clipPath>
</defs>
</svg>
