<svg width="16" height="16" viewBox="0 0 16 16" fill="none" xmlns="http://www.w3.org/2000/svg">
<g clip-path="url(#clip0_5527_71881)">
<g clip-path="url(#clip1_5527_71881)">
<path d="M0.000940218 8.00926C0.000940218 6.18336 -0.000313406 4.35808 0.00156703 2.53218C0.00282065 1.43839 0.657839 0.499427 1.68957 0.147159C1.94155 0.0612857 2.2186 0.0111408 2.48437 0.00988717C4.59672 -0.000768628 6.70908 -0.00139544 8.82081 0.00549949C10.1747 0.00988717 11.2829 1.12373 11.2961 2.47702C11.3005 2.89448 11.2986 3.31131 11.2967 3.72876C11.2948 4.10798 11.0247 4.38629 10.6674 4.38378C10.3164 4.38127 10.05 4.10485 10.0475 3.73503C10.045 3.35456 10.0475 2.97345 10.0469 2.59298C10.045 1.79191 9.51406 1.25599 8.71739 1.25536C6.67273 1.25411 4.62869 1.25411 2.58403 1.25536C1.78673 1.25599 1.25331 1.79191 1.25331 2.59173C1.25268 6.20655 1.25268 9.82137 1.25331 13.4356C1.25331 14.2435 1.78673 14.7757 2.59594 14.7763C4.62995 14.7769 6.66395 14.7769 8.69796 14.7763C9.5172 14.7763 10.0462 14.246 10.0475 13.4268C10.0481 13.0563 10.0462 12.6859 10.0481 12.3161C10.0494 11.9243 10.3158 11.6435 10.6799 11.6473C11.0372 11.651 11.2967 11.9293 11.2986 12.3136C11.2999 12.7204 11.3011 13.1272 11.2986 13.534C11.2892 14.9061 10.1816 16.0218 8.81141 16.0256C6.70469 16.0312 4.59735 16.0312 2.49064 16.0256C1.12043 16.0218 0.00846196 14.9061 0.00470109 13.5334C-0.00282065 11.6918 0.000940218 9.85021 0.000940218 8.00926Z" fill="#463839"/>
<path d="M14.2331 8.6717C14.1766 8.6717 14.1209 8.6717 14.0644 8.6717C11.6506 8.6717 9.23674 8.6717 6.82289 8.6717C6.48566 8.6717 6.25061 8.51186 6.16411 8.22792C6.04752 7.84243 6.31643 7.4513 6.71821 7.42309C6.77525 7.41933 6.83292 7.42121 6.88996 7.42121C9.28313 7.42121 11.6763 7.42121 14.0688 7.42121C14.124 7.42121 14.1792 7.42121 14.2644 7.42121C14.2092 7.36104 14.1773 7.32343 14.1422 7.28833C13.8551 6.99999 13.5636 6.71605 13.2816 6.42333C13.0302 6.16257 13.0346 5.78461 13.2803 5.53952C13.5279 5.29256 13.9027 5.2888 14.1622 5.54454C14.6486 6.02405 15.1357 6.50356 15.6083 6.99623C15.8596 7.25824 15.9787 7.5798 15.9963 7.95463C16.022 8.49181 15.8245 8.90989 15.4453 9.27281C15.0122 9.68714 14.5972 10.1209 14.1704 10.5415C13.9265 10.7822 13.5818 10.8029 13.3348 10.6023C13.0459 10.3679 13.0083 9.96231 13.2653 9.69027C13.5442 9.39442 13.8363 9.1111 14.1246 8.82464C14.1647 8.78453 14.2149 8.75444 14.26 8.71997C14.2519 8.70367 14.2425 8.68737 14.2331 8.6717Z" fill="#463839"/>
</g>
</g>
<defs>
<clipPath id="clip0_5527_71881">
<rect width="15.9919" height="16" fill="white"/>
</clipPath>
<clipPath id="clip1_5527_71881">
<rect width="16" height="16.0288" fill="white"/>
</clipPath>
</defs>
</svg>
