<svg width="16" height="16" viewBox="0 0 16 16" fill="none" xmlns="http://www.w3.org/2000/svg">
<g clip-path="url(#clip0_5527_79769)">
<path d="M4.24773 6.94641C4.41846 6.62475 4.63318 6.34484 4.92123 6.13122C5.29787 5.85192 5.71382 5.69969 6.17671 5.69907C7.07959 5.69785 7.98307 5.68311 8.88537 5.70644C9.66271 5.72608 10.2564 6.11587 10.6718 6.80215C10.6952 6.84082 10.7175 6.88011 10.741 6.91878C10.7463 6.92738 10.7539 6.93413 10.7545 6.93474C11.543 6.83039 12.328 6.831 13.1094 6.90282C14.0363 6.98753 14.8641 7.85551 14.9668 8.82109C15.002 9.14949 14.9955 9.48281 14.9979 9.81367C15.0026 10.3852 14.9997 10.9573 14.9991 11.5294C14.9985 12.4139 14.4447 12.9983 13.5993 12.9983C10.6466 12.9995 7.69384 12.9989 4.74054 12.9989C3.62293 12.9989 2.50532 12.9983 1.38771 12.9989C0.818056 12.9995 0.384506 12.7485 0.139864 12.2077C0.0536237 12.0168 0.0131434 11.7872 0.0090367 11.5742C-0.00563007 10.778 0.00140998 9.98125 0.00375666 9.1851C0.00727669 7.94083 0.906643 6.93351 2.09758 6.87827C2.70068 6.85065 3.30671 6.88318 3.91157 6.89423C4.01717 6.89668 4.12277 6.92615 4.24773 6.94641ZM10.1062 12.0738C10.1086 12.018 10.1121 11.9732 10.1121 11.9284C10.1127 10.6375 10.1144 9.34654 10.1115 8.05501C10.1092 7.19501 9.5571 6.61984 8.734 6.61616C7.90973 6.61247 7.08487 6.6137 6.2606 6.61738C6.13036 6.618 5.99484 6.62659 5.86988 6.66342C5.25211 6.84451 4.8919 7.35461 4.89073 8.04826C4.88779 9.3447 4.88955 10.6405 4.89014 11.937C4.89014 11.9812 4.89601 12.0247 4.89894 12.0738C6.63607 12.0738 8.36147 12.0738 10.1062 12.0738ZM4.01131 12.08C4.01131 11.9928 4.01131 11.9321 4.01131 11.8713C4.01131 10.6411 4.01131 9.41099 4.01131 8.18146C4.01131 7.79228 4.01131 7.79044 3.62586 7.7886C3.17237 7.78614 2.71828 7.78492 2.26479 7.79044C2.13924 7.79167 2.01017 7.80333 1.88932 7.83771C1.25982 8.01634 0.88435 8.53258 0.882003 9.21824C0.87907 9.98862 0.88083 10.7596 0.881416 11.53C0.881416 11.9124 1.04099 12.08 1.40531 12.0806C2.2202 12.0812 3.03509 12.0806 3.84997 12.0806C3.89749 12.08 3.94501 12.08 4.01131 12.08ZM10.9915 12.0683C11.0367 12.0732 11.0648 12.0788 11.093 12.0788C11.9519 12.0794 12.8102 12.0806 13.6691 12.0775C13.9448 12.0763 14.1196 11.8854 14.1208 11.5914C14.1226 10.8462 14.1232 10.101 14.1202 9.35575C14.1196 9.21333 14.1108 9.07031 14.0938 8.92912C14.0264 8.37237 13.5242 7.84753 12.9862 7.81806C12.4171 7.78676 11.8457 7.79719 11.2755 7.79167C11.2227 7.79106 11.1693 7.81131 11.1159 7.81254C11.0167 7.81438 10.9874 7.85981 10.988 7.96477C10.9915 9.27656 10.9909 10.5883 10.9909 11.8995C10.9915 11.9505 10.9915 12.0014 10.9915 12.0683Z" fill="#463839"/>
<path d="M7.50758 1.87219e-05C8.95255 0.00554332 10.1124 1.22894 10.1071 2.74206C10.1018 4.22879 8.92439 5.45403 7.50112 5.45464C6.06495 5.45526 4.88985 4.21897 4.89455 2.7126C4.89865 1.21236 6.07199 -0.00550588 7.50758 1.87219e-05ZM7.49584 0.918944C6.53957 0.921399 5.76868 1.73167 5.7722 2.73163C5.77572 3.7193 6.55365 4.53265 7.4976 4.5351C8.44566 4.53756 9.22887 3.71808 9.22887 2.72242C9.22887 1.72431 8.45329 0.917103 7.49584 0.918944Z" fill="#463839"/>
<path d="M2.92846 2.53422C3.99913 2.52686 4.88735 3.45008 4.88911 4.57157C4.89087 5.68386 4.0179 6.6034 2.94723 6.61752C1.88242 6.63164 0.99831 5.71701 0.98071 4.58385C0.963696 3.47341 1.84957 2.54159 2.92846 2.53422ZM2.93726 3.45499C2.35059 3.45131 1.87362 3.94422 1.86189 4.56605C1.85074 5.17314 2.35587 5.70412 2.93784 5.69736C3.52041 5.69061 4.01028 5.17682 4.00852 4.57342C4.00734 3.96141 3.52569 3.45867 2.93726 3.45499Z" fill="#463839"/>
<path d="M14.0218 4.574C14.02 5.69549 13.1329 6.62179 12.064 6.61749C10.9928 6.61258 10.104 5.67769 10.1134 4.56541C10.1227 3.44453 10.9934 2.53849 12.0652 2.53419C13.1382 2.5299 14.0229 3.45251 14.0218 4.574ZM13.1406 4.57154C13.1376 3.95647 12.6589 3.45619 12.0705 3.45496C11.4891 3.45435 10.9992 3.92517 10.9963 4.58198C10.9939 5.19582 11.4979 5.70347 12.0728 5.69672C12.6577 5.68997 13.1429 5.17864 13.1406 4.57154Z" fill="#463839"/>
</g>
<defs>
<clipPath id="clip0_5527_79769">
<rect width="15" height="13" fill="white"/>
</clipPath>
</defs>
</svg>
