<svg width="16" height="16" viewBox="0 0 16 16" fill="none" xmlns="http://www.w3.org/2000/svg">
<g clip-path="url(#clip0_5886_67121)">
<g clip-path="url(#clip1_5886_67121)">
<path d="M15.9736 11.1516C15.9736 12.5258 15.9736 13.9007 15.9736 15.2749C15.9736 15.7548 15.7324 15.9986 15.2587 15.9986C14.2451 15.9986 13.2314 15.9992 12.2178 15.9986C11.7641 15.9986 11.5141 15.7486 11.5141 15.2936C11.5135 12.534 11.5135 9.77491 11.5141 7.01523C11.5141 6.55778 11.7604 6.30969 12.2147 6.30906C13.2389 6.30844 14.2632 6.30844 15.2868 6.30906C15.7224 6.30906 15.9736 6.56028 15.9736 6.99586C15.9742 8.38194 15.9736 9.76678 15.9736 11.1516ZM14.7156 14.7449C14.7156 12.344 14.7156 9.95863 14.7156 7.57329C14.0607 7.57329 13.4152 7.57329 12.7746 7.57329C12.7746 9.97176 12.7746 12.3571 12.7746 14.7449C13.4258 14.7449 14.0645 14.7449 14.7156 14.7449Z" fill="#463839"/>
<path d="M8.58217 4.87787C9.8064 3.65176 10.9988 2.4569 12.2024 1.25142C12.1524 1.25142 12.1036 1.25142 12.0543 1.25142C11.5968 1.25142 11.1394 1.25267 10.6819 1.25079C10.2895 1.24954 10.0133 0.987697 10.0145 0.622115C10.0158 0.263407 10.2913 0.00156232 10.6732 0.00093739C11.6868 -0.000312463 12.7004 -0.000312463 13.7141 0.00093739C14.0946 0.00156232 14.3646 0.247159 14.3677 0.627739C14.3765 1.66387 14.3759 2.7 14.3684 3.7355C14.3659 4.10108 14.0903 4.36543 13.7478 4.36668C13.3991 4.36793 13.1298 4.09671 13.1248 3.72363C13.1185 3.26556 13.1229 2.80748 13.1229 2.34941C13.1229 2.29379 13.1229 2.23818 13.1229 2.18318C13.0991 2.16506 13.0748 2.14694 13.051 2.12819C13.026 2.17943 13.0123 2.2413 12.9742 2.28005C11.7337 3.52615 10.4813 4.76038 9.25397 6.01961C8.80339 6.48205 8.43469 6.49205 7.98349 6.01336C7.34169 5.33219 6.66489 4.68351 6.00372 4.02047C5.96685 3.9836 5.93561 3.94173 5.89561 3.89548C5.84124 3.94735 5.8 3.98422 5.76063 4.02359C4.74574 5.03972 3.73086 6.0546 2.71786 7.07198C2.55788 7.23259 2.37602 7.3232 2.14542 7.29071C1.66673 7.22384 1.44238 6.67266 1.73922 6.2902C1.77734 6.24083 1.82234 6.19709 1.86671 6.15334C3.0322 4.98598 4.19768 3.81924 5.36255 2.65188C5.71751 2.29629 6.04872 2.29567 6.40243 2.64938C7.10109 3.34867 7.79976 4.04796 8.49655 4.74851C8.53655 4.78913 8.56092 4.84537 8.58217 4.87787Z" fill="#463839"/>
<path d="M5.75908 12.3445C5.75908 11.3715 5.77158 10.3978 5.75408 9.42481C5.74533 8.94174 6.06092 8.67114 6.504 8.67989C7.50638 8.69927 8.51001 8.68552 9.51239 8.68614C9.96984 8.68614 10.2148 8.92924 10.2148 9.38856C10.2161 11.3558 10.2161 13.3231 10.2148 15.2904C10.2148 15.7578 9.96984 15.999 9.50114 15.999C8.48751 15.999 7.47451 15.9997 6.46088 15.999C6.00468 15.999 5.75908 15.7541 5.75846 15.2954C5.75783 14.3124 5.75908 13.3281 5.75908 12.3445ZM8.95871 14.7429C8.95871 13.1375 8.95871 11.5458 8.95871 9.94599C8.30941 9.94599 7.66761 9.94599 7.01894 9.94599C7.01894 11.5477 7.01894 13.1425 7.01894 14.7429C7.66761 14.7429 8.30503 14.7429 8.95871 14.7429Z" fill="#463839"/>
<path d="M0.00055549 13.5315C0.00055549 12.9335 -6.94363e-05 12.3348 0.00118042 11.7368C0.00180534 11.3224 0.259275 11.0631 0.670477 11.0625C1.70973 11.0612 2.74836 11.0612 3.78761 11.0625C4.19944 11.0631 4.46003 11.3218 4.46003 11.7349C4.46128 12.9316 4.46128 14.1284 4.46003 15.3251C4.45941 15.7382 4.19944 15.9988 3.78886 15.9994C2.74961 16.0006 1.71098 16.0006 0.671727 15.9994C0.259275 15.9988 0.00118042 15.74 0.00055549 15.327C-0.000694363 14.7283 0.00055549 14.1296 0.00055549 13.5315ZM1.26041 12.3161C1.26041 13.1347 1.26041 13.9377 1.26041 14.7395C1.91408 14.7395 2.55651 14.7395 3.19956 14.7395C3.19956 13.9265 3.19956 13.1235 3.19956 12.3161C2.54901 12.3161 1.91033 12.3161 1.26041 12.3161Z" fill="#463839"/>
</g>
</g>
<defs>
<clipPath id="clip0_5886_67121">
<rect width="16.0003" height="16" fill="white"/>
</clipPath>
<clipPath id="clip1_5886_67121">
<rect width="15.975" height="16" fill="white"/>
</clipPath>
</defs>
</svg>
