<svg width="18" height="18" viewBox="0 0 18 18" fill="none" xmlns="http://www.w3.org/2000/svg">
<g clip-path="url(#clip0_5527_80144)">
<path d="M9.19461 13.5113C6.89701 13.626 4.7599 11.9092 4.50367 9.46937C4.23618 6.91976 6.13747 4.74464 8.51744 4.50672C11.0931 4.24908 13.2548 6.16093 13.4921 8.53104C13.7546 11.1623 11.7013 13.4388 9.19461 13.5113ZM8.99399 5.72098C7.15183 5.72309 5.70597 7.17177 5.71512 9.0076C5.72427 10.8484 7.14549 12.271 8.98836 12.2822C10.8221 12.2935 12.2715 10.8484 12.2764 9.00478C12.2806 7.16684 10.8333 5.71887 8.99399 5.72098Z" fill="#463839"/>
<path d="M1.52764 8.3793C1.82047 8.3793 2.1133 8.37578 2.40614 8.38071C2.67151 8.38564 2.8848 8.49052 3.00377 8.73901C3.10513 8.95089 3.10231 9.17614 2.94534 9.3479C2.83905 9.46405 2.67292 9.59075 2.52862 9.59639C1.86271 9.62243 1.19539 9.62032 0.528775 9.60061C0.233832 9.59146 0.0282863 9.34509 0.00224112 9.05648C-0.0223962 8.78265 0.158512 8.50179 0.426002 8.41872C0.51892 8.38986 0.621693 8.38212 0.720242 8.38001C0.98914 8.37578 1.25804 8.3793 1.52764 8.3793Z" fill="#463839"/>
<path d="M8.37484 1.53392C8.37484 1.24109 8.37061 0.948959 8.37624 0.656127C8.38117 0.380893 8.50577 0.170421 8.75988 0.0570891C8.98936 -0.0456835 9.21602 -0.00978349 9.392 0.165493C9.48563 0.259115 9.58699 0.397788 9.59051 0.518862C9.60952 1.19604 9.61374 1.87462 9.59403 2.55179C9.58558 2.83477 9.32936 3.04383 9.05694 3.06425C8.7634 3.08607 8.50436 2.92487 8.41707 2.65104C8.3861 2.55249 8.37836 2.44409 8.37624 2.33991C8.37061 2.07101 8.37413 1.80141 8.37413 1.53251C8.37413 1.53392 8.37413 1.53392 8.37484 1.53392Z" fill="#463839"/>
<path d="M16.4641 8.37972C16.7569 8.37972 17.049 8.3755 17.3419 8.38113C17.6171 8.38676 17.8269 8.51135 17.9402 8.76547C18.043 8.99495 18.0064 9.22161 17.8304 9.39759C17.7368 9.49121 17.5981 9.59258 17.4763 9.5961C16.7992 9.6151 16.1206 9.61933 15.4434 9.59891C15.1604 9.59047 14.9514 9.33353 14.9316 9.06112C14.9098 8.76758 15.0717 8.50854 15.3456 8.42196C15.4441 8.39098 15.5525 8.38324 15.6567 8.38113C15.9256 8.3755 16.1952 8.37902 16.4641 8.37902V8.37972Z" fill="#463839"/>
<path d="M9.61732 16.4645C9.61732 16.763 9.62647 17.0615 9.61451 17.3599C9.60113 17.6957 9.38855 17.9393 9.08727 17.992C8.82893 18.0371 8.54243 17.8808 8.43614 17.6211C8.39743 17.526 8.37772 17.4169 8.37701 17.3142C8.37138 16.7468 8.37279 16.1794 8.3749 15.6114C8.37631 15.3319 8.4826 15.1067 8.74728 14.9877C8.9676 14.8885 9.1816 14.918 9.37447 15.0651C9.55679 15.2045 9.61732 15.4016 9.61803 15.6219C9.61944 15.9028 9.61803 16.1837 9.61803 16.4645C9.61803 16.4645 9.61803 16.4645 9.61732 16.4645Z" fill="#463839"/>
<path d="M13.6884 13.001C13.7708 13.0453 13.9299 13.0918 14.0369 13.1939C14.4775 13.6134 14.9055 14.047 15.3314 14.4813C15.596 14.7516 15.596 15.1099 15.3461 15.3577C15.097 15.6041 14.7415 15.5992 14.4698 15.3331C14.0439 14.9149 13.6222 14.4919 13.2034 14.0667C13.0105 13.871 12.9458 13.6387 13.0612 13.3769C13.1675 13.1375 13.366 13.0334 13.6884 13.001Z" fill="#463839"/>
<path d="M4.95875 4.39386C4.94889 4.63671 4.83415 4.81551 4.61946 4.92462C4.40124 5.03584 4.18373 5.01613 3.99578 4.86267C3.84233 4.73737 3.70577 4.59166 3.56498 4.45158C3.25385 4.14256 2.9406 3.83635 2.63651 3.52029C2.37817 3.25139 2.37887 2.88043 2.62384 2.6425C2.87584 2.39824 3.22921 2.40809 3.49881 2.67558C3.92257 3.09442 4.34915 3.51184 4.76024 3.94405C4.86935 4.05879 4.92355 4.22492 5.00239 4.36781C4.98831 4.37556 4.97353 4.38471 4.95875 4.39386Z" fill="#463839"/>
<path d="M14.8744 2.45996C15.1792 2.48249 15.3706 2.58104 15.4804 2.79784C15.5896 3.01254 15.5755 3.22724 15.4347 3.42574C15.391 3.48698 15.3368 3.54189 15.2833 3.59539C14.887 3.9931 14.495 4.39504 14.0916 4.78502C13.7228 5.1412 13.1955 5.01661 13.059 4.5485C12.997 4.33662 13.0378 4.13741 13.1927 3.97973C13.639 3.525 14.0874 3.07167 14.5477 2.63101C14.6463 2.53739 14.7976 2.49868 14.8744 2.45996Z" fill="#463839"/>
<path d="M4.96279 13.7043C4.92619 13.774 4.88114 13.9338 4.77977 14.0393C4.35179 14.4877 3.91113 14.9235 3.46837 15.3571C3.22199 15.5978 2.87566 15.595 2.63211 15.3669C2.39629 15.1466 2.36673 14.7764 2.60043 14.5321C3.0439 14.0668 3.50145 13.6142 3.96393 13.1679C4.14695 12.9912 4.37995 12.9567 4.61365 13.0715C4.83538 13.1806 4.95153 13.3678 4.96279 13.7043Z" fill="#463839"/>
</g>
<defs>
<clipPath id="clip0_5527_80144">
<rect width="17.9972" height="18" fill="white"/>
</clipPath>
</defs>
</svg>
