<svg width="16" height="16" viewBox="0 0 16 16" fill="none" xmlns="http://www.w3.org/2000/svg">
<g clip-path="url(#clip0_5527_79780)">
<path d="M4.14728 2.09189C4.14728 1.89028 4.14598 1.7087 4.14728 1.52712C4.14922 1.28356 4.26256 1.15896 4.51708 1.15082C4.87263 1.14018 5.22818 1.14206 5.58373 1.14519C5.68153 1.14581 5.73334 1.12139 5.77867 1.02873C6.1148 0.348755 6.68018 -0.0012489 7.45929 3.34838e-06C8.25459 0.0012556 8.86336 0.313692 9.19107 1.04501C9.22928 1.12953 9.28044 1.14581 9.36399 1.14519C9.68198 1.14206 9.99996 1.14143 10.3173 1.14519C10.4132 1.14644 10.5116 1.15395 10.6042 1.17649C10.7707 1.21719 10.8548 1.32676 10.8535 1.49582C10.8523 1.68741 10.8529 1.87963 10.8529 2.09126C10.9552 2.09126 11.0446 2.09001 11.1346 2.09126C11.6294 2.10065 12.1281 2.07623 12.6184 2.1282C13.3806 2.2096 13.9972 2.90773 13.9978 3.65031C14.0011 7.28622 14.0004 10.9215 13.9978 14.5574C13.9972 15.248 13.426 15.8541 12.6857 15.9662C12.5691 15.9837 12.4506 15.9969 12.3327 15.9975C9.11076 15.9994 5.88877 16.0006 2.66743 15.9969C2.0852 15.9962 1.59948 15.7809 1.2504 15.3169C1.08525 15.0965 1.00106 14.8467 1.00106 14.5731C1.00041 10.9321 0.99847 7.29123 1.00236 3.65031C1.003 2.81506 1.75297 2.10691 2.63699 2.09314C3.13178 2.08563 3.62723 2.09189 4.14728 2.09189ZM4.14728 2.8639C4.08575 2.86014 4.03847 2.85451 3.9912 2.85451C3.57088 2.85388 3.15057 2.85138 2.73025 2.85513C2.14155 2.86014 1.78211 3.21641 1.78211 3.78994C1.78211 6.57119 1.78211 9.35244 1.78211 12.1343C1.78211 12.9157 1.78146 13.6971 1.78211 14.4779C1.78276 14.8141 1.9356 15.0464 2.26589 15.1585C2.42457 15.2123 2.60137 15.2374 2.7704 15.238C5.9218 15.2424 9.07385 15.2411 12.2252 15.2411C12.2576 15.2411 12.29 15.2418 12.3224 15.2411C12.9221 15.2267 13.2187 14.935 13.2187 14.3583C13.2187 10.8533 13.2187 7.34758 13.2187 3.84253C13.2187 3.79056 13.22 3.7386 13.2181 3.686C13.2025 3.26024 12.8748 2.90209 12.4357 2.87079C12.0873 2.84574 11.7363 2.85826 11.3859 2.85513C11.2149 2.85388 11.0433 2.85513 10.882 2.85513C10.8671 2.88206 10.8581 2.89145 10.8581 2.90021C10.8561 3.16068 10.8542 3.42115 10.8529 3.68099C10.8516 4.03413 10.6968 4.1869 10.3348 4.1869C8.43851 4.18753 6.54224 4.18753 4.64596 4.1869C4.29818 4.1869 4.14728 4.03976 4.14663 3.70103C4.14663 3.42491 4.14728 3.15004 4.14728 2.8639ZM10.0524 1.9028C9.71436 1.9028 9.39183 1.9028 9.06996 1.9028C8.73772 1.9028 8.6218 1.81702 8.53113 1.50458C8.36274 0.924164 7.74619 0.576665 7.17498 0.75198C6.7715 0.875952 6.51374 1.14644 6.4004 1.54278C6.32592 1.80387 6.19251 1.90155 5.91209 1.90217C5.81494 1.90217 5.71844 1.90217 5.6213 1.90217C5.39721 1.90217 5.17313 1.90217 4.95358 1.90217C4.95358 2.42248 4.95358 2.92025 4.95358 3.41802C6.65946 3.41802 8.35303 3.41802 10.0518 3.41802C10.0524 2.91274 10.0524 2.41872 10.0524 1.9028Z" fill="black"/>
<path d="M9.35776 7.04763C8.63111 7.04763 7.90447 7.04888 7.17782 7.047C6.89804 7.04638 6.7303 6.91113 6.71929 6.69011C6.70893 6.48224 6.84753 6.31882 7.06189 6.28689C7.09881 6.28125 7.13702 6.2825 7.17458 6.2825C8.63889 6.2825 10.1032 6.28188 11.5668 6.2825C11.8518 6.2825 12.0306 6.43591 12.0273 6.67195C12.0247 6.85541 11.901 7.0013 11.7139 7.03323C11.6452 7.04513 11.5746 7.047 11.5053 7.047C10.7897 7.04763 10.074 7.04763 9.35776 7.04763Z" fill="black"/>
<path d="M9.37408 12.3764C10.1117 12.3764 10.8494 12.3751 11.5864 12.377C11.8565 12.3776 12.0313 12.5392 12.0261 12.7708C12.0223 12.9468 11.9044 13.0895 11.7243 13.1265C11.6615 13.139 11.5961 13.1453 11.5326 13.1453C10.0897 13.1465 8.64743 13.1465 7.2045 13.1453C6.89493 13.1453 6.71942 13.0056 6.71683 12.7658C6.71423 12.5329 6.8878 12.3776 7.1611 12.377C7.81781 12.3751 8.47451 12.3764 9.13121 12.3764C9.21282 12.3764 9.29312 12.3764 9.37408 12.3764Z" fill="black"/>
<path d="M9.39287 9.33665C10.1357 9.33665 10.8785 9.33477 11.6214 9.33728C11.8202 9.3379 11.9497 9.42493 12.0074 9.5871C12.0605 9.73862 12.0346 9.88514 11.9051 9.98344C11.8267 10.0429 11.7127 10.0874 11.6143 10.088C10.1176 10.0943 8.62154 10.093 7.12485 10.0918C6.88393 10.0918 6.72137 9.93585 6.71878 9.71796C6.71619 9.49569 6.87098 9.33978 7.11578 9.33853C7.87481 9.33415 8.63384 9.33665 9.39287 9.33665Z" fill="black"/>
<path d="M4.20572 9.62393C4.49521 9.3572 4.80996 9.06793 5.12471 8.77804C5.23028 8.68099 5.33066 8.57893 5.4427 8.49002C5.6221 8.34789 5.85395 8.37105 6.00485 8.53698C6.14863 8.69539 6.1428 8.89449 5.97377 9.05228C5.4699 9.52125 4.96345 9.98771 4.45247 10.4504C4.25947 10.6251 4.05482 10.6138 3.86765 10.431C3.60989 10.1793 3.35472 9.92635 3.10215 9.67026C2.93441 9.49996 2.93052 9.2589 3.08531 9.10925C3.24398 8.95648 3.47195 8.97276 3.65976 9.14432C3.83592 9.30398 4.01726 9.45801 4.20572 9.62393Z" fill="black"/>
<path d="M4.20138 6.57831C4.58737 6.22393 4.99215 5.85076 5.39757 5.47946C5.55106 5.33859 5.70584 5.30978 5.86775 5.38555C6.12292 5.50514 6.18704 5.80254 5.98238 5.99477C5.46881 6.47626 4.94811 6.95148 4.42482 7.42296C4.25902 7.5726 4.05567 7.55945 3.89181 7.40167C3.62952 7.14809 3.36852 6.892 3.11336 6.63153C2.92943 6.44432 2.92748 6.19826 3.09781 6.04861C3.25519 5.91024 3.49093 5.93779 3.67421 6.10809C3.8413 6.26337 4.01422 6.41176 4.20138 6.57831Z" fill="black"/>
<path d="M4.19505 12.6803C4.58816 12.319 4.99293 11.9459 5.39836 11.5746C5.55573 11.4306 5.71764 11.403 5.88279 11.4894C6.12889 11.6178 6.18459 11.902 5.98252 12.0911C5.46895 12.5726 4.9476 13.0472 4.42496 13.5193C4.26305 13.6652 4.05904 13.6571 3.90426 13.5081C3.63355 13.2476 3.36737 12.9821 3.10184 12.7173C2.99368 12.6096 2.94705 12.4793 2.98656 12.3309C3.06104 12.0498 3.39522 11.9615 3.62707 12.1631C3.81359 12.3266 3.99493 12.4975 4.19505 12.6803Z" fill="black"/>
</g>
<defs>
<clipPath id="clip0_5527_79780">
<rect width="13" height="16" fill="white" transform="translate(1)"/>
</clipPath>
</defs>
</svg>
