<svg width="16" height="16" viewBox="0 0 16 16" fill="none" xmlns="http://www.w3.org/2000/svg">
<g clip-path="url(#clip0_5527_71873)">
<g clip-path="url(#clip1_5527_71873)">
<path d="M9.73595 12.3723C8.06916 11.9834 6.40986 11.5975 4.75182 11.2065C4.63799 11.1796 4.61235 11.2349 4.58358 11.3434C4.2227 12.6992 3.8587 14.0536 3.49406 15.408C3.35709 15.9155 2.94868 16.1391 2.58092 15.9112C2.30198 15.7379 2.19002 15.3833 2.2951 14.9908C2.62658 13.7507 2.93742 12.5026 3.30205 11.2764C3.4678 10.7172 3.46529 10.2155 3.32457 9.6504C2.77731 7.45862 2.26758 5.25373 1.74408 3.05394C1.73345 3.00807 1.71844 2.96365 1.70093 2.90394C1.34318 2.90394 0.9848 2.90685 0.626423 2.90321C0.304947 2.89957 0.042888 2.62724 0.00473619 2.26607C-0.0340411 1.89834 0.168601 1.50295 0.491328 1.48038C1.09675 1.43741 1.70718 1.44761 2.31386 1.47892C2.56466 1.49203 2.71914 1.72431 2.78794 2.01194C2.96182 2.73938 3.13631 3.46609 3.31144 4.19352C3.32394 4.24522 3.33833 4.29692 3.35272 4.35372C3.81304 4.35372 4.26961 4.35372 4.72305 4.35372C4.76371 4.09085 4.78685 3.82653 4.84564 3.57313C5.15898 2.23257 6.28415 1.32819 7.46873 1.46363C7.57193 1.47528 7.60383 1.42139 7.64886 1.34348C8.15234 0.469681 8.85408 -0.00289928 9.75784 1.33834e-05C10.6497 0.00292605 11.3433 0.473321 11.8387 1.33329C11.8987 1.43814 11.9506 1.46872 12.0613 1.4578C13.3654 1.32965 14.5443 2.44738 14.7182 3.96779C14.7326 4.09231 14.7438 4.21755 14.7582 4.35882C14.9515 4.35882 15.1429 4.36027 15.3343 4.35809C15.5901 4.35518 15.7902 4.4746 15.9153 4.73601C16.0441 5.00616 16.0147 5.27194 15.8703 5.52388C15.2592 6.59138 14.6475 7.6596 14.0365 8.72709C14.0021 8.78753 13.9683 8.84796 13.9239 8.92661C14.8877 9.3737 15.5488 10.1558 15.8596 11.3048C16.0723 12.0919 16.0429 12.8813 15.7883 13.6539C15.2611 15.2529 13.9164 16.1187 12.6017 15.984C11.08 15.8289 9.78411 14.3806 9.73595 12.3723ZM3.71109 5.82243C3.71922 5.8734 3.72298 5.92073 3.73423 5.96515C4.01756 7.15206 4.30401 8.33752 4.58108 9.52589C4.61235 9.65914 4.66489 9.7123 4.77184 9.73705C6.46115 10.1266 8.15046 10.5162 9.83852 10.9145C9.95986 10.9429 10.0061 10.9145 10.0599 10.7885C10.5434 9.65987 11.3271 8.99068 12.3903 8.77005C12.4973 8.7482 12.5536 8.6965 12.608 8.60184C13.1052 7.7295 13.6043 6.85861 14.1028 5.987C14.1303 5.93894 14.1553 5.88797 14.1897 5.8217C10.6872 5.82243 7.20417 5.82243 3.71109 5.82243ZM6.00583 4.34717C8.50884 4.34717 10.9993 4.34717 13.4898 4.34717C13.5099 3.39473 12.6793 2.68622 11.8887 2.9702C11.3483 3.1639 11.1082 3.027 10.9155 2.41607C10.6979 1.72577 10.1112 1.33329 9.50079 1.48329C9.02233 1.60052 8.71398 1.94859 8.56075 2.48452C8.44004 2.90613 8.17923 3.11147 7.83086 3.04666C7.74956 3.03137 7.672 2.99278 7.59257 2.96511C6.80952 2.69204 5.98582 3.40346 6.00583 4.34717ZM11.0375 12.6759C11.0462 13.5672 11.8718 14.4621 12.7318 14.5386C13.7194 14.6267 14.5706 13.8257 14.7276 12.6264C14.8596 11.6157 14.2979 10.5475 13.3429 10.2482C12.4222 9.95915 11.5378 10.5963 11.2889 11.2465C11.3709 11.2669 11.4509 11.2866 11.531 11.3055C12.0338 11.4249 12.5398 11.532 13.0395 11.6682C13.371 11.7584 13.5593 12.1553 13.478 12.5237C13.391 12.9162 13.0789 13.1507 12.7437 13.0728C12.5811 13.0349 12.4185 12.9949 12.2558 12.957C11.8537 12.8645 11.4528 12.7721 11.0375 12.6759Z" fill="#463839"/>
</g>
</g>
<defs>
<clipPath id="clip0_5527_71873">
<rect width="15.4831" height="16" fill="white"/>
</clipPath>
<clipPath id="clip1_5527_71873">
<rect width="16" height="16" fill="white"/>
</clipPath>
</defs>
</svg>
