<svg width="17" height="16" viewBox="0 0 17 16" fill="none" xmlns="http://www.w3.org/2000/svg">
<path d="M5.62956 16.0002C5.32841 15.9485 5.02287 15.9141 4.72641 15.8427C2.81179 15.3819 1.42436 14.2577 0.565972 12.4884C0.106101 11.5401 -0.0516762 10.528 0.0143774 9.48371C0.0666568 8.65851 0.373446 7.90875 0.774463 7.19531C1.30258 6.25585 1.97658 5.42314 2.66842 4.60263C3.36965 3.77117 4.07965 2.94628 4.75771 2.09635C5.0044 1.78737 5.18503 1.42141 5.36691 1.06673C5.44173 0.920846 5.45456 0.737086 5.47178 0.568352C5.5034 0.259997 5.76167 0.00705237 6.07346 0.000165266C6.40342 -0.00703489 6.70176 0.221805 6.71459 0.535481C6.73338 0.993474 6.90868 1.39324 7.17102 1.74292C7.67315 2.41253 8.20471 3.05992 8.73251 3.70981C8.97513 4.00877 9.24341 4.28676 9.48978 4.58291C9.79845 4.95387 9.63848 5.48042 9.18299 5.60314C8.94163 5.66825 8.72312 5.60721 8.55971 5.41781C7.72387 4.44892 6.83136 3.52605 6.12449 2.45135C6.11604 2.43851 6.10414 2.42787 6.09225 2.41472C5.86028 2.72339 5.64396 3.03988 5.39916 3.33227C4.69072 4.17845 3.96695 5.01179 3.25727 5.85702C2.75138 6.45933 2.2843 7.09013 1.88798 7.77227C0.914084 9.44802 1.07624 11.0859 2.11463 12.6496C2.91729 13.8583 4.09029 14.5442 5.53064 14.7095C6.99509 14.8776 8.30113 14.4762 9.39962 13.4707C9.59497 13.2917 9.79939 13.168 10.0717 13.235C10.3018 13.2917 10.4587 13.44 10.5244 13.6661C10.5958 13.9115 10.5304 14.1284 10.346 14.3072C9.66947 14.963 8.88434 15.4445 7.98119 15.7097C7.56014 15.8333 7.11874 15.8865 6.68673 15.9723C6.64635 15.9804 6.60628 15.9908 6.56621 16.0002C6.25441 16.0002 5.94198 16.0002 5.62956 16.0002Z" fill="#8FC442"/>
<path d="M16.0022 11.8749C15.9214 12.0383 15.8354 12.1967 15.6585 12.279C15.4259 12.3877 15.1902 12.3492 14.9566 12.2909C14.437 12.161 14.0366 11.843 13.6819 11.4595C13.3801 11.1333 13.3763 11.1339 13.0764 11.456C12.6873 11.8743 12.2494 12.2155 11.6661 12.3188C11.2141 12.3986 10.7862 12.3128 10.4155 12.0583C10.1184 11.8542 9.8539 11.5997 9.59031 11.3508C9.41407 11.1846 9.32954 11.1708 9.16989 11.3527C8.81896 11.7531 8.42639 12.0978 7.90673 12.2606C7.20143 12.4816 6.59661 12.2596 6.05504 11.8104C5.87973 11.6648 5.72571 11.4933 5.56699 11.3283C5.42737 11.1834 5.32281 11.1783 5.19008 11.3305C4.85825 11.7115 4.49323 12.0533 4.00706 12.2205C3.79982 12.2916 3.57317 12.3272 3.35341 12.3369C3.0413 12.3507 2.77333 12.0802 2.75517 11.7738C2.73514 11.4357 2.95459 11.1251 3.27421 11.1045C3.60385 11.0835 3.83833 10.9148 4.05871 10.7031C4.15607 10.6095 4.24122 10.5034 4.33483 10.4057C4.89832 9.82002 5.85281 9.8194 6.41911 10.4014C6.58221 10.5688 6.73936 10.7451 6.92093 10.8907C7.25308 11.1574 7.49882 11.1542 7.8341 10.8935C7.97278 10.7855 8.10176 10.6612 8.2179 10.5291C8.88219 9.77275 9.86924 9.7762 10.5389 10.5272C10.7023 10.7107 10.9061 10.8622 11.107 11.0068C11.2773 11.1295 11.4818 11.1301 11.6489 11.0052C11.8681 10.8418 12.0822 10.6656 12.2691 10.4671C12.8122 9.89077 13.6434 9.79404 14.2566 10.2608C14.3671 10.345 14.4532 10.4608 14.5572 10.5548C14.7187 10.7003 14.8802 10.8471 15.0537 10.978C15.1291 11.035 15.2334 11.0822 15.3254 11.0835C15.6672 11.0876 15.8729 11.2654 16.0013 11.5618C16.0022 11.6664 16.0022 11.7706 16.0022 11.8749Z" fill="#8FC442"/>
<path d="M16.0022 8.75035C15.9214 8.91376 15.8353 9.07217 15.6585 9.1545C15.4259 9.26281 15.1901 9.22462 14.9563 9.16608C14.4363 9.03617 14.0362 8.71779 13.6816 8.33431C13.3801 8.00842 13.3754 8.00811 13.0764 8.3318C12.7067 8.73188 12.2882 9.06215 11.7422 9.18111C11.164 9.30727 10.6475 9.14135 10.1914 8.7898C9.97035 8.6195 9.77501 8.41382 9.57778 8.21503C9.42157 8.05757 9.3264 8.05006 9.17958 8.21754C8.82866 8.61762 8.44016 8.96917 7.91893 9.12789C7.74268 9.18142 7.55297 9.20897 7.36859 9.21429C7.03206 9.224 6.76096 8.94914 6.75407 8.61793C6.74656 8.26888 6.99762 8.00842 7.33541 7.96303C7.50289 7.94049 7.676 7.86849 7.81844 7.77551C7.97246 7.67502 8.10426 7.53384 8.2276 7.39422C8.88062 6.65448 9.87049 6.65698 10.5291 7.39015C10.7004 7.58048 10.9114 7.73951 11.1208 7.88978C11.2798 8.00435 11.4774 8.00498 11.6355 7.88946C11.8518 7.73137 12.0672 7.56295 12.2481 7.36667C12.7972 6.77156 13.6377 6.66418 14.2576 7.13658C14.3681 7.22079 14.4542 7.33693 14.5584 7.43053C14.724 7.57954 14.8899 7.72918 15.0671 7.86379C15.1382 7.91764 15.239 7.95927 15.3263 7.9599C15.6685 7.9624 15.8742 8.14147 16.0025 8.43793C16.0022 8.54186 16.0022 8.6461 16.0022 8.75035Z" fill="#8FC442"/>
</svg>
