<svg width="16" height="16" viewBox="0 0 16 16" fill="none" xmlns="http://www.w3.org/2000/svg">
<mask id="mask0_5630_60718" style="mask-type:alpha" maskUnits="userSpaceOnUse" x="0" y="0" width="16" height="16">
<rect width="16" height="16" fill="#D9D9D9"/>
</mask>
<g mask="url(#mask0_5630_60718)">
</g>
<g clip-path="url(#clip0_5630_60718)">
<path d="M6.08574 0C6.18431 0.0262849 6.28319 0.0516311 6.38113 0.0788547C7.42846 0.370492 8.09622 1.27795 8.09716 2.4204C8.09904 4.62145 8.09904 6.8225 8.09497 9.02355C8.09466 9.17062 8.13753 9.26606 8.2483 9.36838C9.3726 10.406 9.79942 11.6858 9.41141 13.1665C9.0237 14.6463 8.02894 15.5672 6.54009 15.9102C4.50583 16.3789 2.41868 14.9589 2.06102 12.889C2.0435 12.7876 2.02065 12.6868 2 12.5858C2 12.3361 2 12.0861 2 11.8363C2.01033 11.8019 2.02535 11.7681 2.03004 11.7331C2.15802 10.7762 2.58703 9.98107 3.31456 9.34992C3.41031 9.26668 3.4463 9.18501 3.4463 9.05922C3.44254 6.82876 3.4416 4.59798 3.44442 2.36752C3.44567 1.27889 4.12689 0.372682 5.15106 0.0829226C5.25432 0.0538215 5.35821 0.0275366 5.4621 0C5.66987 0 5.87765 0 6.08574 0ZM7.15153 5.82618C7.1509 5.82618 7.15059 5.82618 7.14996 5.82618C7.14996 4.64461 7.15873 3.46335 7.14715 2.28209C7.13776 1.30955 6.10952 0.65681 5.2246 1.05797C4.6554 1.31612 4.39036 1.77517 4.39099 2.40038C4.3938 4.72158 4.39099 7.04279 4.3938 9.364C4.39412 9.59587 4.31558 9.76641 4.12595 9.90878C3.24916 10.5668 2.85457 11.4461 2.96159 12.5413C3.12337 14.1967 4.78964 15.3798 6.40742 14.9736C7.55456 14.6858 8.29492 13.947 8.53555 12.7923C8.78057 11.617 8.37816 10.6419 7.42189 9.9116C7.23445 9.76829 7.14777 9.60432 7.14871 9.37057C7.15403 8.189 7.15153 7.00774 7.15153 5.82618Z" fill="#44C4A1"/>
<path d="M10.2254 1.85079C10.4538 1.85079 10.6819 1.84798 10.9104 1.85142C11.1998 1.8558 11.4101 2.05043 11.4166 2.31328C11.4235 2.58396 11.2167 2.79392 10.9185 2.7983C10.4569 2.80519 9.99507 2.80456 9.53321 2.79862C9.23469 2.79486 9.02034 2.58709 9.02347 2.32111C9.0266 2.05356 9.24314 1.85455 9.54041 1.85079C9.76884 1.84829 9.99726 1.85048 10.2254 1.85079Z" fill="#44C4A1"/>
<path d="M10.2254 3.72458C10.4485 3.72458 10.6716 3.72239 10.8947 3.72521C11.2036 3.72865 11.4188 3.92798 11.4163 4.20365C11.4138 4.4737 11.2042 4.67052 10.9022 4.67334C10.4457 4.67772 9.98914 4.67835 9.53259 4.67303C9.2347 4.66959 9.02004 4.4615 9.02348 4.19552C9.02692 3.92766 9.24252 3.72959 9.54073 3.72521C9.76884 3.72208 9.99696 3.72458 10.2254 3.72458Z" fill="#44C4A1"/>
<path d="M10.2166 6.54814C9.99353 6.54814 9.77042 6.55064 9.54731 6.54751C9.23909 6.54313 9.01943 6.34005 9.02349 6.06875C9.02756 5.8009 9.24222 5.60188 9.54168 5.59938C9.99291 5.59562 10.4444 5.59594 10.896 5.59938C11.2045 5.60157 11.4195 5.8034 11.4167 6.07877C11.4139 6.3485 11.203 6.54094 10.9016 6.54845C10.8963 6.54845 10.8913 6.54845 10.886 6.54845C10.6629 6.54814 10.4397 6.54814 10.2166 6.54814Z" fill="#44C4A1"/>
<path d="M10.2194 8.42134C9.9963 8.42134 9.7732 8.42322 9.55009 8.42072C9.24155 8.41728 9.02157 8.2167 9.02345 7.94446C9.02533 7.67191 9.24437 7.47384 9.55447 7.47196C10.0007 7.46914 10.4469 7.46883 10.8931 7.47196C11.2035 7.47415 11.4179 7.67348 11.4166 7.94915C11.4154 8.22452 11.2004 8.4179 10.8884 8.42072C10.6656 8.42322 10.4425 8.42134 10.2194 8.42134Z" fill="#44C4A1"/>
<path d="M5.30322 10.3509C5.30322 10.2915 5.30322 10.2292 5.30322 10.1672C5.30322 8.21056 5.30291 6.25422 5.30447 4.29756C5.30447 4.20556 5.30854 4.10793 5.33795 4.0225C5.40805 3.81817 5.62803 3.69144 5.83048 3.72242C6.05516 3.75652 6.22601 3.94302 6.23821 4.16863C6.24103 4.22058 6.23915 4.27283 6.23915 4.32478C6.23915 6.2708 6.23915 8.21714 6.23915 10.1632C6.23915 10.2254 6.23915 10.2874 6.23915 10.3597C6.80083 10.5271 7.22765 10.8594 7.48393 11.3898C7.67324 11.7812 7.7255 12.1946 7.62881 12.6199C7.42385 13.5223 6.65126 14.1237 5.71689 14.1153C4.87014 14.1078 4.09537 13.4669 3.90918 12.6233C3.73051 11.8116 4.10851 10.7164 5.30322 10.3509ZM4.80568 12.209C4.80349 12.7325 5.24283 13.1759 5.76665 13.1784C6.28953 13.1809 6.73137 12.7413 6.73418 12.2156C6.737 11.6914 6.29892 11.2496 5.77322 11.2465C5.25096 11.2433 4.80787 11.6842 4.80568 12.209Z" fill="#44C4A1"/>
</g>
<defs>
<clipPath id="clip0_5630_60718">
<rect width="9.41688" height="16" fill="white" transform="translate(2)"/>
</clipPath>
</defs>
</svg>
